# MagicaVoxel @ Ephtracy

# group
o 

# material
mtllib light switcher.mtl
usemtl palette

# normals
vn -1 0 0
vn 1 0 0
vn 0 0 1
vn 0 0 -1
vn 0 -1 0
vn 0 1 0

# texcoords
vt 0.970703 0.5
vt 0.974609 0.5
vt 0.978516 0.5

# verts
v -0.5 0 -0.1
v -0.5 0 -0.2
v -0.5 1 -0.1
v -0.5 1 -0.2
v -0.1 0.5 0
v -0.1 0.5 -0.1
v -0.1 0.6 0.1
v -0.1 0.6 0
v -0.1 0.7 0.2
v -0.1 0.7 0.1
v -0.1 0.7 0
v -0.1 0.7 -0.1
v -0.1 0.8 0.1
v -0.1 0.8 0
v -0.1 0.9 0.2
v -0.1 0.9 0.1
v 0.1 0.5 0
v 0.1 0.5 -0.1
v 0.1 0.6 0.1
v 0.1 0.6 0
v 0.1 0.7 0.2
v 0.1 0.7 0.1
v 0.1 0.7 0
v 0.1 0.7 -0.1
v 0.1 0.8 0.1
v 0.1 0.8 0
v 0.1 0.9 0.2
v 0.1 0.9 0.1
v 0.5 0 -0.1
v 0.5 0 -0.2
v 0.5 1 -0.1
v 0.5 1 -0.2
v -0.1 0.7 0.2
v -0.1 0.9 0.2
v 0.1 0.7 0.2
v 0.1 0.9 0.2
v -0.1 0.6 0.1
v -0.1 0.7 0.1
v 0.1 0.6 0.1
v 0.1 0.7 0.1
v -0.1 0.5 0
v -0.1 0.6 0
v 0.1 0.5 0
v 0.1 0.6 0
v -0.5 0 -0.1
v -0.5 1 -0.1
v -0.4 0.1 -0.1
v -0.4 0.9 -0.1
v -0.3 0.2 -0.1
v -0.3 0.8 -0.1
v -0.2 0.1 -0.1
v -0.2 0.2 -0.1
v -0.2 0.8 -0.1
v -0.2 0.9 -0.1
v -0.1 0.5 -0.1
v -0.1 0.7 -0.1
v 0.1 0.5 -0.1
v 0.1 0.7 -0.1
v 0.2 0.1 -0.1
v 0.2 0.2 -0.1
v 0.2 0.8 -0.1
v 0.2 0.9 -0.1
v 0.3 0.2 -0.1
v 0.3 0.8 -0.1
v 0.4 0.1 -0.1
v 0.4 0.9 -0.1
v 0.5 0 -0.1
v 0.5 1 -0.1
v -0.1 0.8 0.1
v -0.1 0.9 0.1
v 0.1 0.8 0.1
v 0.1 0.9 0.1
v -0.1 0.7 0
v -0.1 0.8 0
v 0.1 0.7 0
v 0.1 0.8 0
v -0.5 0 -0.2
v -0.5 1 -0.2
v -0.4 0.1 -0.2
v -0.4 0.9 -0.2
v -0.3 0.2 -0.2
v -0.3 0.8 -0.2
v -0.2 0.1 -0.2
v -0.2 0.2 -0.2
v -0.2 0.8 -0.2
v -0.2 0.9 -0.2
v 0.2 0.1 -0.2
v 0.2 0.2 -0.2
v 0.2 0.8 -0.2
v 0.2 0.9 -0.2
v 0.3 0.2 -0.2
v 0.3 0.8 -0.2
v 0.4 0.1 -0.2
v 0.4 0.9 -0.2
v 0.5 0 -0.2
v 0.5 1 -0.2
v -0.5 0 -0.1
v 0.5 0 -0.1
v -0.5 0 -0.2
v 0.5 0 -0.2
v -0.1 0.5 0
v 0.1 0.5 0
v -0.1 0.5 -0.1
v 0.1 0.5 -0.1
v -0.1 0.6 0.1
v 0.1 0.6 0.1
v -0.1 0.6 0
v 0.1 0.6 0
v -0.1 0.7 0.2
v 0.1 0.7 0.2
v -0.1 0.7 0.1
v 0.1 0.7 0.1
v -0.1 0.7 0
v 0.1 0.7 0
v -0.1 0.7 -0.1
v 0.1 0.7 -0.1
v -0.1 0.8 0.1
v 0.1 0.8 0.1
v -0.1 0.8 0
v 0.1 0.8 0
v -0.1 0.9 0.2
v 0.1 0.9 0.2
v -0.1 0.9 0.1
v 0.1 0.9 0.1
v -0.5 1 -0.1
v 0.5 1 -0.1
v -0.5 1 -0.2
v 0.5 1 -0.2

# faces
f 3/1/1 2/1/1 1/1/1
f 4/1/1 2/1/1 3/1/1
f 8/2/1 6/2/1 5/2/1
f 10/2/1 8/2/1 7/2/1
f 11/2/1 6/2/1 8/2/1
f 11/2/1 8/2/1 10/2/1
f 12/2/1 6/2/1 11/2/1
f 13/2/1 10/2/1 9/2/1
f 13/2/1 11/2/1 10/2/1
f 14/2/1 11/2/1 13/2/1
f 15/2/1 13/2/1 9/2/1
f 16/2/1 13/2/1 15/2/1
f 17/2/2 18/2/2 20/2/2
f 19/2/2 20/2/2 22/2/2
f 20/2/2 18/2/2 23/2/2
f 22/2/2 20/2/2 23/2/2
f 23/2/2 18/2/2 24/2/2
f 21/2/2 22/2/2 25/2/2
f 22/2/2 23/2/2 25/2/2
f 25/2/2 23/2/2 26/2/2
f 21/2/2 25/2/2 27/2/2
f 27/2/2 25/2/2 28/2/2
f 29/1/2 30/1/2 31/1/2
f 31/1/2 30/1/2 32/1/2
f 35/2/3 34/2/3 33/2/3
f 36/2/3 34/2/3 35/2/3
f 39/2/3 38/2/3 37/2/3
f 40/2/3 38/2/3 39/2/3
f 43/2/3 42/2/3 41/2/3
f 44/2/3 42/2/3 43/2/3
f 47/1/3 46/1/3 45/1/3
f 48/1/3 46/1/3 47/1/3
f 49/3/3 48/3/3 47/3/3
f 50/3/3 48/3/3 49/3/3
f 51/1/3 47/1/3 45/1/3
f 51/3/3 49/3/3 47/3/3
f 52/1/3 50/1/3 49/1/3
f 52/3/3 49/3/3 51/3/3
f 53/3/3 48/3/3 50/3/3
f 53/1/3 50/1/3 52/1/3
f 54/1/3 46/1/3 48/1/3
f 54/3/3 48/3/3 53/3/3
f 55/1/3 52/1/3 51/1/3
f 55/1/3 53/1/3 52/1/3
f 55/1/3 54/1/3 53/1/3
f 56/1/3 54/1/3 55/1/3
f 57/1/3 55/1/3 51/1/3
f 58/1/3 54/1/3 56/1/3
f 59/1/3 51/1/3 45/1/3
f 59/1/3 58/1/3 57/1/3
f 59/1/3 57/1/3 51/1/3
f 60/1/3 58/1/3 59/1/3
f 61/1/3 54/1/3 58/1/3
f 61/1/3 58/1/3 60/1/3
f 62/1/3 46/1/3 54/1/3
f 62/1/3 54/1/3 61/1/3
f 63/1/3 61/1/3 60/1/3
f 63/3/3 60/3/3 59/3/3
f 64/3/3 62/3/3 61/3/3
f 64/1/3 61/1/3 63/1/3
f 65/3/3 63/3/3 59/3/3
f 65/1/3 59/1/3 45/1/3
f 65/3/3 64/3/3 63/3/3
f 66/1/3 46/1/3 62/1/3
f 66/3/3 64/3/3 65/3/3
f 66/3/3 62/3/3 64/3/3
f 67/1/3 65/1/3 45/1/3
f 67/1/3 66/1/3 65/1/3
f 68/1/3 46/1/3 66/1/3
f 68/1/3 66/1/3 67/1/3
f 69/2/4 70/2/4 71/2/4
f 71/2/4 70/2/4 72/2/4
f 73/2/4 74/2/4 75/2/4
f 75/2/4 74/2/4 76/2/4
f 77/1/4 78/1/4 79/1/4
f 79/1/4 78/1/4 80/1/4
f 79/3/4 80/3/4 81/3/4
f 81/3/4 80/3/4 82/3/4
f 77/1/4 79/1/4 83/1/4
f 79/3/4 81/3/4 83/3/4
f 81/1/4 82/1/4 84/1/4
f 83/3/4 81/3/4 84/3/4
f 82/3/4 80/3/4 85/3/4
f 84/1/4 82/1/4 85/1/4
f 80/1/4 78/1/4 86/1/4
f 85/3/4 80/3/4 86/3/4
f 83/1/4 84/1/4 87/1/4
f 84/1/4 85/1/4 87/1/4
f 85/1/4 86/1/4 87/1/4
f 77/1/4 83/1/4 87/1/4
f 87/1/4 86/1/4 88/1/4
f 88/1/4 86/1/4 89/1/4
f 86/1/4 78/1/4 90/1/4
f 89/1/4 86/1/4 90/1/4
f 88/1/4 89/1/4 91/1/4
f 87/3/4 88/3/4 91/3/4
f 89/3/4 90/3/4 92/3/4
f 91/1/4 89/1/4 92/1/4
f 77/1/4 87/1/4 93/1/4
f 87/3/4 91/3/4 93/3/4
f 91/3/4 92/3/4 93/3/4
f 90/1/4 78/1/4 94/1/4
f 93/3/4 92/3/4 94/3/4
f 92/3/4 90/3/4 94/3/4
f 77/1/4 93/1/4 95/1/4
f 93/1/4 94/1/4 95/1/4
f 94/1/4 78/1/4 96/1/4
f 95/1/4 94/1/4 96/1/4
f 99/1/5 98/1/5 97/1/5
f 100/1/5 98/1/5 99/1/5
f 103/2/5 102/2/5 101/2/5
f 104/2/5 102/2/5 103/2/5
f 107/2/5 106/2/5 105/2/5
f 108/2/5 106/2/5 107/2/5
f 111/2/5 110/2/5 109/2/5
f 112/2/5 110/2/5 111/2/5
f 113/2/6 114/2/6 115/2/6
f 115/2/6 114/2/6 116/2/6
f 117/2/6 118/2/6 119/2/6
f 119/2/6 118/2/6 120/2/6
f 121/2/6 122/2/6 123/2/6
f 123/2/6 122/2/6 124/2/6
f 125/1/6 126/1/6 127/1/6
f 127/1/6 126/1/6 128/1/6
