# MagicaVoxel @ Ephtracy

# group
o 

# material
mtllib granny_body.mtl
usemtl palette

# normals
vn -1 0 0
vn 1 0 0
vn 0 0 1
vn 0 0 -1
vn 0 -1 0
vn 0 1 0

# texcoords
vt 0.896484 0.5
vt 0.900391 0.5
vt 0.958984 0.5
vt 0.962891 0.5

# verts
v -1.3 3 0.5
v -1.3 3 0.1
v -1.3 3.6 0.5
v -1.3 3.6 0.4
v -1.3 4 0.4
v -1.3 4 0.3
v -1.3 4.1 0.5
v -1.3 4.1 0.4
v -1.3 4.3 0.4
v -1.3 4.3 0.3
v -1.3 4.6 0.5
v -1.3 4.6 0.4
v -1.3 4.7 0.4
v -1.3 4.7 0.3
v -1.3 4.8 0.5
v -1.3 4.8 0.4
v -1.3 4.8 0.3
v -1.3 4.8 0.2
v -1.3 4.9 0.4
v -1.3 4.9 0.2
v -1.3 5 0.6
v -1.3 5 0.5
v -1.3 5 0.1
v -1.3 5 0
v -1.3 5.4 0.6
v -1.3 5.4 0.5
v -1.3 5.4 0.1
v -1.3 5.4 0
v -1.3 5.6 0.5
v -1.3 5.6 0.1
v -1.2 3 0.6
v -1.2 3 0.5
v -1.2 3 0.1
v -1.2 3 0
v -1.2 3.6 0.5
v -1.2 4.1 0.5
v -1.2 4.6 0.5
v -1.2 4.8 0.5
v -1.2 5 0.6
v -1.2 5 0.5
v -1.2 5 0.1
v -1.2 5 0
v -1.2 5.4 0.6
v -1.2 5.4 0.5
v -1.2 5.4 0.1
v -1.2 5.4 0
v -1.2 5.6 0.6
v -1.2 5.6 0.5
v -1.2 5.6 0.1
v -1.2 5.6 0
v -1.2 5.7 0.5
v -1.2 5.7 0.1
v -1.1 3 0.7
v -1.1 3 0.6
v -1.1 3 0
v -1.1 3 -0.1
v -1.1 5.6 0.7
v -1.1 5.6 0.6
v -1.1 5.6 0.5
v -1.1 5.6 0.1
v -1.1 5.6 0
v -1.1 5.6 -0.1
v -1.1 5.7 0.6
v -1.1 5.7 0.5
v -1.1 5.7 0.1
v -1.1 5.7 0
v 0.2 5.4 0.7
v 0.2 5.4 0.6
v 0.2 5.6 0.7
v 0.2 5.6 0.6
v 0.2 5.6 0.1
v 0.2 5.7 0.6
v 0.2 5.7 0.1
v 0.3 4 0.7
v 0.3 4 0.6
v 0.3 5.4 0.7
v 0.3 5.4 0.6
v 0.4 3.6 0.7
v 0.4 3.6 0.6
v 0.4 4 0.7
v 0.4 4 0.6
v 0.5 3.4 0.7
v 0.5 3.4 0.6
v 0.5 3.6 0.7
v 0.5 3.6 0.6
v 0.6 3.2 0.7
v 0.6 3.2 0.6
v 0.6 3.4 0.7
v 0.6 3.4 0.6
v 0.8 3.1 0.7
v 0.8 3.1 0.6
v 0.8 3.2 0.7
v 0.8 3.2 0.6
v 0.9 3 0.7
v 0.9 3 0.6
v 0.9 3.1 0.7
v 0.9 3.1 0.6
v -0.9 3 0.7
v -0.9 3 0.6
v -0.9 3.1 0.7
v -0.9 3.1 0.6
v -0.7 3.1 0.7
v -0.7 3.1 0.6
v -0.7 3.9 0.7
v -0.7 3.9 0.6
v -0.6 3.9 0.7
v -0.6 3.9 0.6
v -0.6 4.1 0.7
v -0.6 4.1 0.6
v -0.5 4.1 0.7
v -0.5 4.1 0.6
v -0.5 4.3 0.7
v -0.5 4.3 0.6
v -0.4 4.3 0.7
v -0.4 4.3 0.6
v -0.4 5.5 0.7
v -0.4 5.5 0.6
v -0.3 5.5 0.7
v -0.3 5.5 0.6
v -0.3 5.6 0.7
v -0.3 5.6 0.6
v -0.3 5.6 0.1
v -0.3 5.7 0.6
v -0.3 5.7 0.1
v 1 3 0
v 1 3 -0.1
v 1 3.1 0.7
v 1 3.1 0.6
v 1 5.6 0.7
v 1 5.6 0.6
v 1 5.6 0.5
v 1 5.6 0.1
v 1 5.6 0
v 1 5.6 -0.1
v 1 5.7 0.6
v 1 5.7 0.5
v 1 5.7 0.1
v 1 5.7 0
v 1.1 3 0.7
v 1.1 3 0.5
v 1.1 3 0.1
v 1.1 3 0
v 1.1 3.1 0.7
v 1.1 3.1 0.6
v 1.1 4.8 0.5
v 1.1 4.9 0.5
v 1.1 5 0.6
v 1.1 5 0.5
v 1.1 5 0.1
v 1.1 5 0
v 1.1 5.4 0.6
v 1.1 5.4 0.5
v 1.1 5.4 0.1
v 1.1 5.4 0
v 1.1 5.6 0.6
v 1.1 5.6 0.5
v 1.1 5.6 0.1
v 1.1 5.6 0
v 1.1 5.7 0.5
v 1.1 5.7 0.1
v 1.2 3 0.5
v 1.2 3 0.1
v 1.2 3.9 0.4
v 1.2 3.9 0.3
v 1.2 4 0.3
v 1.2 4 0.2
v 1.2 4.1 0.4
v 1.2 4.1 0.3
v 1.2 4.6 0.4
v 1.2 4.6 0.3
v 1.2 4.7 0.3
v 1.2 4.7 0.2
v 1.2 4.8 0.5
v 1.2 4.8 0.4
v 1.2 4.9 0.5
v 1.2 4.9 0.3
v 1.2 5 0.6
v 1.2 5 0.5
v 1.2 5 0.1
v 1.2 5 0
v 1.2 5.4 0.6
v 1.2 5.4 0.5
v 1.2 5.4 0.1
v 1.2 5.4 0
v 1.2 5.6 0.5
v 1.2 5.6 0.1
v -1.1 3 0.7
v -1.1 5.6 0.7
v -1 4.6 0.7
v -1 5 0.7
v -0.9 3 0.7
v -0.9 3.1 0.7
v -0.9 4.4 0.7
v -0.9 4.6 0.7
v -0.9 4.7 0.7
v -0.9 5 0.7
v -0.9 5.3 0.7
v -0.8 4.4 0.7
v -0.8 4.7 0.7
v -0.8 5 0.7
v -0.8 5.3 0.7
v -0.7 3.1 0.7
v -0.7 3.9 0.7
v -0.6 3.9 0.7
v -0.6 4.1 0.7
v -0.5 4.1 0.7
v -0.5 4.3 0.7
v -0.4 4.3 0.7
v -0.4 5.5 0.7
v -0.3 5.5 0.7
v -0.3 5.6 0.7
v 0.2 5.4 0.7
v 0.2 5.6 0.7
v 0.3 4 0.7
v 0.3 5.4 0.7
v 0.4 3.6 0.7
v 0.4 4 0.7
v 0.5 3.4 0.7
v 0.5 3.6 0.7
v 0.6 3.2 0.7
v 0.6 3.4 0.7
v 0.6 5 0.7
v 0.6 5.3 0.7
v 0.7 4.7 0.7
v 0.7 5 0.7
v 0.7 5.3 0.7
v 0.8 3.1 0.7
v 0.8 3.2 0.7
v 0.8 4.3 0.7
v 0.8 4.7 0.7
v 0.8 4.8 0.7
v 0.8 5 0.7
v 0.9 3 0.7
v 0.9 3.1 0.7
v 0.9 4.3 0.7
v 0.9 4.8 0.7
v 1 3.1 0.7
v 1 5.6 0.7
v 1.1 3 0.7
v 1.1 3.1 0.7
v -1.3 5 0.6
v -1.3 5.4 0.6
v -1.2 3 0.6
v -1.2 5 0.6
v -1.2 5.4 0.6
v -1.2 5.6 0.6
v -1.1 3 0.6
v -1.1 5.6 0.6
v -1.1 5.7 0.6
v -0.9 3 0.6
v -0.9 3.1 0.6
v -0.7 3.1 0.6
v -0.7 3.9 0.6
v -0.6 3.9 0.6
v -0.6 4.1 0.6
v -0.5 4.1 0.6
v -0.5 4.3 0.6
v -0.4 4.3 0.6
v -0.4 5.5 0.6
v -0.3 3 0.6
v -0.3 3.1 0.6
v -0.3 4.5 0.6
v -0.3 5 0.6
v -0.3 5.5 0.6
v -0.3 5.6 0.6
v -0.3 5.7 0.6
v -0.2 3 0.6
v -0.2 3.1 0.6
v -0.2 3.2 0.6
v -0.2 4.2 0.6
v -0.2 4.5 0.6
v -0.2 4.9 0.6
v -0.1 4.2 0.6
v -0.1 4.5 0.6
v -0.1 4.9 0.6
v -0.1 5 0.6
v -1.19209e-07 3.1 0.6
v -1.19209e-07 3.2 0.6
v -1.19209e-07 3.6 0.6
v -1.19209e-07 4 0.6
v 0.0999999 3.6 0.6
v 0.0999999 3.9 0.6
v 0.2 3.9 0.6
v 0.2 4 0.6
v 0.2 5.4 0.6
v 0.2 5.6 0.6
v 0.2 5.7 0.6
v 0.3 4 0.6
v 0.3 5.4 0.6
v 0.4 3.6 0.6
v 0.4 4 0.6
v 0.5 3.4 0.6
v 0.5 3.6 0.6
v 0.6 3.2 0.6
v 0.6 3.4 0.6
v 0.8 3.1 0.6
v 0.8 3.2 0.6
v 0.9 3 0.6
v 0.9 3.1 0.6
v 1 3.1 0.6
v 1 5.6 0.6
v 1 5.7 0.6
v 1.1 3.1 0.6
v 1.1 5 0.6
v 1.1 5.4 0.6
v 1.1 5.6 0.6
v 1.2 5 0.6
v 1.2 5.4 0.6
v -1.3 3 0.5
v -1.3 3.6 0.5
v -1.3 4.1 0.5
v -1.3 4.6 0.5
v -1.3 4.8 0.5
v -1.3 5 0.5
v -1.3 5.4 0.5
v -1.3 5.6 0.5
v -1.2 3 0.5
v -1.2 3.6 0.5
v -1.2 4.1 0.5
v -1.2 4.6 0.5
v -1.2 4.8 0.5
v -1.2 5 0.5
v -1.2 5.4 0.5
v -1.2 5.6 0.5
v -1.2 5.7 0.5
v -1.1 5.6 0.5
v -1.1 5.7 0.5
v 1 5.6 0.5
v 1 5.7 0.5
v 1.1 3 0.5
v 1.1 4.8 0.5
v 1.1 4.9 0.5
v 1.1 5 0.5
v 1.1 5.4 0.5
v 1.1 5.6 0.5
v 1.1 5.7 0.5
v 1.2 3 0.5
v 1.2 4.8 0.5
v 1.2 4.9 0.5
v 1.2 5 0.5
v 1.2 5.4 0.5
v 1.2 5.6 0.5
v -0.3 5.6 0.1
v -0.3 5.7 0.1
v 0.2 5.6 0.1
v 0.2 5.7 0.1
v -1.3 3 0.1
v -1.3 5 0.1
v -1.3 5.4 0.1
v -1.3 5.6 0.1
v -1.2 3 0.1
v -1.2 5 0.1
v -1.2 5.4 0.1
v -1.2 5.6 0.1
v -1.2 5.7 0.1
v -1.1 5.6 0.1
v -1.1 5.7 0.1
v 1 5.6 0.1
v 1 5.7 0.1
v 1.1 3 0.1
v 1.1 5 0.1
v 1.1 5.4 0.1
v 1.1 5.6 0.1
v 1.1 5.7 0.1
v 1.2 3 0.1
v 1.2 5 0.1
v 1.2 5.4 0.1
v 1.2 5.6 0.1
v -1.3 5 0
v -1.3 5.4 0
v -1.2 3 0
v -1.2 5 0
v -1.2 5.4 0
v -1.2 5.6 0
v -1.1 3 0
v -1.1 5.6 0
v -1.1 5.7 0
v -1 5.6 0
v -1 5.7 0
v -0.7 5.6 0
v -0.6 5.6 0
v -0.6 5.7 0
v 0.0999999 5.6 0
v 0.4 5.6 0
v 0.4 5.7 0
v 0.6 5.6 0
v 0.6 5.7 0
v 1 3 0
v 1 5.6 0
v 1 5.7 0
v 1.1 3 0
v 1.1 5 0
v 1.1 5.4 0
v 1.1 5.6 0
v 1.2 5 0
v 1.2 5.4 0
v -1.1 3 -0.1
v -1.1 5.6 -0.1
v -0.7 5.5 -0.1
v -0.7 5.6 -0.1
v -0.6 3.6 -0.1
v -0.6 3.8 -0.1
v -0.5 3.6 -0.1
v -0.5 3.7 -0.1
v -0.4 3.8 -0.1
v -0.4 3.9 -0.1
v -0.3 3.7 -0.1
v -0.3 3.8 -0.1
v -0.3 3.9 -0.1
v -0.3 4 -0.1
v -0.2 3.8 -0.1
v -0.2 3.9 -0.1
v -0.1 3.9 -0.1
v -0.1 4 -0.1
v -0.1 4.1 -0.1
v -1.19209e-07 4.1 -0.1
v -1.19209e-07 4.4 -0.1
v 0.0999999 4 -0.1
v 0.0999999 4.3 -0.1
v 0.0999999 4.4 -0.1
v 0.0999999 4.9 -0.1
v 0.0999999 5.5 -0.1
v 0.0999999 5.6 -0.1
v 0.2 4.3 -0.1
v 0.2 4.8 -0.1
v 0.2 4.9 -0.1
v 0.2 5.2 -0.1
v 0.3 4.8 -0.1
v 0.3 5.1 -0.1
v 0.3 5.2 -0.1
v 0.3 5.3 -0.1
v 0.4 5.1 -0.1
v 0.4 5.3 -0.1
v 1 3 -0.1
v 1 5.6 -0.1
v -1.1 3 0.7
v -0.9 3 0.7
v 0.9 3 0.7
v 1.1 3 0.7
v -1.2 3 0.6
v -1.1 3 0.6
v -0.9 3 0.6
v -0.3 3 0.6
v -0.2 3 0.6
v 0.9 3 0.6
v 1 3 0.6
v -1.3 3 0.5
v -1.2 3 0.5
v -1.1 3 0.5
v -0.3 3 0.5
v -0.2 3 0.5
v 1 3 0.5
v 1.1 3 0.5
v 1.2 3 0.5
v -1.3 3 0.1
v -1.2 3 0.1
v -1.1 3 0.1
v 1 3 0.1
v 1.1 3 0.1
v 1.2 3 0.1
v -1.2 3 0
v -1.1 3 0
v 1 3 0
v 1.1 3 0
v -1.1 3 -0.1
v 1 3 -0.1
v -0.9 3.1 0.7
v -0.7 3.1 0.7
v 0.8 3.1 0.7
v 0.9 3.1 0.7
v -0.9 3.1 0.6
v -0.7 3.1 0.6
v 0.8 3.1 0.6
v 0.9 3.1 0.6
v 0.6 3.2 0.7
v 0.8 3.2 0.7
v 0.6 3.2 0.6
v 0.8 3.2 0.6
v 0.5 3.4 0.7
v 0.6 3.4 0.7
v 0.5 3.4 0.6
v 0.6 3.4 0.6
v 0.4 3.6 0.7
v 0.5 3.6 0.7
v 0.4 3.6 0.6
v 0.5 3.6 0.6
v -0.7 3.9 0.7
v -0.6 3.9 0.7
v -0.7 3.9 0.6
v -0.6 3.9 0.6
v 0.3 4 0.7
v 0.4 4 0.7
v 0.3 4 0.6
v 0.4 4 0.6
v -0.6 4.1 0.7
v -0.5 4.1 0.7
v -0.6 4.1 0.6
v -0.5 4.1 0.6
v -0.5 4.3 0.7
v -0.4 4.3 0.7
v -0.5 4.3 0.6
v -0.4 4.3 0.6
v -1.3 5 0.6
v -1.2 5 0.6
v 1.1 5 0.6
v 1.2 5 0.6
v -1.3 5 0.5
v -1.2 5 0.5
v 1.1 5 0.5
v 1.2 5 0.5
v -1.3 5 0.1
v -1.2 5 0.1
v 1.1 5 0.1
v 1.2 5 0.1
v -1.3 5 0
v -1.2 5 0
v 1.1 5 0
v 1.2 5 0
v 0.2 5.4 0.7
v 0.3 5.4 0.7
v 0.2 5.4 0.6
v 0.3 5.4 0.6
v -0.4 5.5 0.7
v -0.3 5.5 0.7
v -0.4 5.5 0.6
v -0.3 5.5 0.6
v 1 3.1 0.7
v 1.1 3.1 0.7
v 1 3.1 0.6
v 1.1 3.1 0.6
v -1.3 5.4 0.6
v -1.2 5.4 0.6
v 1.1 5.4 0.6
v 1.2 5.4 0.6
v -1.3 5.4 0.5
v -1.2 5.4 0.5
v 1.1 5.4 0.5
v 1.2 5.4 0.5
v -1.3 5.4 0.1
v -1.2 5.4 0.1
v 1.1 5.4 0.1
v 1.2 5.4 0.1
v -1.3 5.4 0
v -1.2 5.4 0
v 1.1 5.4 0
v 1.2 5.4 0
v -1.1 5.6 0.7
v -0.3 5.6 0.7
v 0.2 5.6 0.7
v 1 5.6 0.7
v -1.2 5.6 0.6
v -1.1 5.6 0.6
v -0.3 5.6 0.6
v 0.2 5.6 0.6
v 1 5.6 0.6
v 1.1 5.6 0.6
v -1.3 5.6 0.5
v -1.2 5.6 0.5
v -1.1 5.6 0.5
v 1 5.6 0.5
v 1.1 5.6 0.5
v 1.2 5.6 0.5
v -1.3 5.6 0.1
v -1.2 5.6 0.1
v -1.1 5.6 0.1
v -0.3 5.6 0.1
v 0.2 5.6 0.1
v 1 5.6 0.1
v 1.1 5.6 0.1
v 1.2 5.6 0.1
v -1.2 5.6 0
v -1.1 5.6 0
v -1 5.6 0
v -0.7 5.6 0
v -0.6 5.6 0
v 0.0999999 5.6 0
v 0.4 5.6 0
v 0.6 5.6 0
v 1 5.6 0
v 1.1 5.6 0
v -1.1 5.6 -0.1
v -0.7 5.6 -0.1
v 0.0999999 5.6 -0.1
v 1 5.6 -0.1
v -1.1 5.7 0.6
v -0.3 5.7 0.6
v 0.2 5.7 0.6
v 1 5.7 0.6
v -1.2 5.7 0.5
v -1.1 5.7 0.5
v 1 5.7 0.5
v 1.1 5.7 0.5
v -1 5.7 0.3
v -0.9 5.7 0.3
v 0.7 5.7 0.3
v 0.9 5.7 0.3
v 0.5 5.7 0.2
v 0.7 5.7 0.2
v 0.8 5.7 0.2
v 0.9 5.7 0.2
v -1.2 5.7 0.1
v -1.1 5.7 0.1
v -0.9 5.7 0.1
v -0.6 5.7 0.1
v -0.3 5.7 0.1
v 0.2 5.7 0.1
v 0.4 5.7 0.1
v 0.5 5.7 0.1
v 0.6 5.7 0.1
v 0.8 5.7 0.1
v 1 5.7 0.1
v 1.1 5.7 0.1
v -1.1 5.7 0
v -1 5.7 0
v -0.6 5.7 0
v 0.4 5.7 0
v 0.6 5.7 0
v 1 5.7 0

# faces
f 3/2/1 2/2/1 1/2/1
f 4/2/1 2/2/1 3/2/1
f 5/1/1 4/1/1 3/1/1
f 5/2/1 2/2/1 4/2/1
f 6/2/1 2/2/1 5/2/1
f 7/1/1 5/1/1 3/1/1
f 7/1/1 6/1/1 5/1/1
f 8/1/1 6/1/1 7/1/1
f 9/2/1 8/2/1 7/2/1
f 9/1/1 6/1/1 8/1/1
f 10/2/1 2/2/1 6/2/1
f 10/1/1 6/1/1 9/1/1
f 11/2/1 9/2/1 7/2/1
f 11/2/1 10/2/1 9/2/1
f 12/2/1 10/2/1 11/2/1
f 13/1/1 12/1/1 11/1/1
f 13/2/1 10/2/1 12/2/1
f 14/2/1 2/2/1 10/2/1
f 14/2/1 10/2/1 13/2/1
f 15/1/1 13/1/1 11/1/1
f 15/1/1 14/1/1 13/1/1
f 16/1/1 14/1/1 15/1/1
f 17/2/1 2/2/1 14/2/1
f 17/1/1 14/1/1 16/1/1
f 18/2/1 2/2/1 17/2/1
f 19/2/1 16/2/1 15/2/1
f 19/1/1 17/1/1 16/1/1
f 19/1/1 18/1/1 17/1/1
f 20/2/1 2/2/1 18/2/1
f 20/1/1 18/1/1 19/1/1
f 22/2/1 19/2/1 15/2/1
f 22/2/1 20/2/1 19/2/1
f 23/2/1 2/2/1 20/2/1
f 23/2/1 20/2/1 22/2/1
f 25/2/1 22/2/1 21/2/1
f 25/2/1 24/2/1 23/2/1
f 25/2/1 23/2/1 22/2/1
f 26/2/1 24/2/1 25/2/1
f 27/2/1 24/2/1 26/2/1
f 28/2/1 24/2/1 27/2/1
f 29/2/1 27/2/1 26/2/1
f 30/2/1 27/2/1 29/2/1
f 35/2/1 32/2/1 31/2/1
f 36/2/1 35/2/1 31/2/1
f 37/2/1 36/2/1 31/2/1
f 38/2/1 37/2/1 31/2/1
f 39/2/1 38/2/1 31/2/1
f 40/2/1 38/2/1 39/2/1
f 41/2/1 34/2/1 33/2/1
f 42/2/1 34/2/1 41/2/1
f 47/2/1 44/2/1 43/2/1
f 48/2/1 44/2/1 47/2/1
f 49/2/1 46/2/1 45/2/1
f 50/2/1 46/2/1 49/2/1
f 51/2/1 49/2/1 48/2/1
f 52/2/1 49/2/1 51/2/1
f 57/2/1 54/2/1 53/2/1
f 58/2/1 54/2/1 57/2/1
f 61/2/1 56/2/1 55/2/1
f 62/2/1 56/2/1 61/2/1
f 63/2/1 59/2/1 58/2/1
f 64/2/1 59/2/1 63/2/1
f 65/2/1 61/2/1 60/2/1
f 66/2/1 61/2/1 65/2/1
f 69/2/1 68/2/1 67/2/1
f 70/2/1 68/2/1 69/2/1
f 72/2/1 71/2/1 70/2/1
f 73/2/1 71/2/1 72/2/1
f 76/2/1 75/2/1 74/2/1
f 77/2/1 75/2/1 76/2/1
f 80/2/1 79/2/1 78/2/1
f 81/2/1 79/2/1 80/2/1
f 84/2/1 83/2/1 82/2/1
f 85/2/1 83/2/1 84/2/1
f 88/2/1 87/2/1 86/2/1
f 89/2/1 87/2/1 88/2/1
f 92/2/1 91/2/1 90/2/1
f 93/2/1 91/2/1 92/2/1
f 96/2/1 95/2/1 94/2/1
f 97/2/1 95/2/1 96/2/1
f 98/2/2 99/2/2 100/2/2
f 100/2/2 99/2/2 101/2/2
f 102/2/2 103/2/2 104/2/2
f 104/2/2 103/2/2 105/2/2
f 106/2/2 107/2/2 108/2/2
f 108/2/2 107/2/2 109/2/2
f 110/2/2 111/2/2 112/2/2
f 112/2/2 111/2/2 113/2/2
f 114/2/2 115/2/2 116/2/2
f 116/2/2 115/2/2 117/2/2
f 118/2/2 119/2/2 120/2/2
f 120/2/2 119/2/2 121/2/2
f 121/2/2 122/2/2 123/2/2
f 123/2/2 122/2/2 124/2/2
f 127/2/2 128/2/2 129/2/2
f 129/2/2 128/2/2 130/2/2
f 125/2/2 126/2/2 133/2/2
f 133/2/2 126/2/2 134/2/2
f 130/2/2 131/2/2 135/2/2
f 135/2/2 131/2/2 136/2/2
f 132/2/2 133/2/2 137/2/2
f 137/2/2 133/2/2 138/2/2
f 139/2/2 140/2/2 143/2/2
f 143/2/2 140/2/2 144/2/2
f 144/2/2 140/2/2 145/2/2
f 144/2/2 145/2/2 146/2/2
f 144/2/2 146/2/2 147/2/2
f 147/2/2 146/2/2 148/2/2
f 141/2/2 142/2/2 149/2/2
f 149/2/2 142/2/2 150/2/2
f 151/2/2 152/2/2 155/2/2
f 155/2/2 152/2/2 156/2/2
f 153/2/2 154/2/2 157/2/2
f 157/2/2 154/2/2 158/2/2
f 156/2/2 157/2/2 159/2/2
f 159/2/2 157/2/2 160/2/2
f 161/2/2 162/2/2 163/2/2
f 163/2/2 162/2/2 164/2/2
f 163/1/2 164/1/2 165/1/2
f 164/2/2 162/2/2 165/2/2
f 165/2/2 162/2/2 166/2/2
f 161/2/2 163/2/2 167/2/2
f 163/1/2 165/1/2 167/1/2
f 165/1/2 166/1/2 167/1/2
f 167/1/2 166/1/2 168/1/2
f 161/2/2 167/2/2 169/2/2
f 167/2/2 168/2/2 169/2/2
f 168/1/2 166/1/2 170/1/2
f 169/2/2 168/2/2 170/2/2
f 169/1/2 170/1/2 171/1/2
f 170/1/2 166/1/2 171/1/2
f 166/2/2 162/2/2 172/2/2
f 171/1/2 166/1/2 172/1/2
f 161/2/2 169/2/2 173/2/2
f 169/1/2 171/1/2 174/1/2
f 173/2/2 169/2/2 174/2/2
f 173/1/2 174/1/2 175/1/2
f 171/2/2 172/2/2 176/2/2
f 175/1/2 174/1/2 176/1/2
f 174/1/2 171/1/2 176/1/2
f 175/2/2 176/2/2 178/2/2
f 172/2/2 162/2/2 179/2/2
f 176/2/2 172/2/2 179/2/2
f 178/2/2 176/2/2 179/2/2
f 177/2/2 178/2/2 181/2/2
f 179/2/2 180/2/2 181/2/2
f 178/2/2 179/2/2 181/2/2
f 181/2/2 180/2/2 182/2/2
f 182/2/2 180/2/2 183/2/2
f 183/2/2 180/2/2 184/2/2
f 182/2/2 183/2/2 185/2/2
f 185/2/2 183/2/2 186/2/2
f 189/2/3 188/2/3 187/2/3
f 190/2/3 188/2/3 189/2/3
f 191/2/3 189/2/3 187/2/3
f 192/2/3 189/2/3 191/2/3
f 193/2/3 189/2/3 192/2/3
f 194/1/3 190/1/3 189/1/3
f 194/2/3 189/2/3 193/2/3
f 195/1/3 190/1/3 194/1/3
f 196/2/3 188/2/3 190/2/3
f 196/1/3 190/1/3 195/1/3
f 197/2/3 188/2/3 196/2/3
f 198/1/3 195/1/3 194/1/3
f 198/2/3 193/2/3 192/2/3
f 198/1/3 194/1/3 193/1/3
f 199/2/3 196/2/3 195/2/3
f 199/1/3 195/1/3 198/1/3
f 200/1/3 197/1/3 196/1/3
f 200/2/3 196/2/3 199/2/3
f 201/2/3 188/2/3 197/2/3
f 201/1/3 197/1/3 200/1/3
f 202/2/3 200/2/3 199/2/3
f 202/2/3 199/2/3 198/2/3
f 202/2/3 201/2/3 200/2/3
f 202/2/3 198/2/3 192/2/3
f 203/2/3 201/2/3 202/2/3
f 204/2/3 201/2/3 203/2/3
f 205/2/3 201/2/3 204/2/3
f 206/2/3 201/2/3 205/2/3
f 207/2/3 201/2/3 206/2/3
f 208/2/3 201/2/3 207/2/3
f 209/2/3 188/2/3 201/2/3
f 209/2/3 201/2/3 208/2/3
f 210/2/3 188/2/3 209/2/3
f 211/2/3 188/2/3 210/2/3
f 215/2/3 213/2/3 212/2/3
f 217/2/3 215/2/3 214/2/3
f 219/2/3 217/2/3 216/2/3
f 221/2/3 219/2/3 218/2/3
f 222/2/3 215/2/3 217/2/3
f 222/2/3 217/2/3 219/2/3
f 222/2/3 219/2/3 221/2/3
f 223/2/3 215/2/3 222/2/3
f 224/2/3 221/2/3 220/2/3
f 224/2/3 222/2/3 221/2/3
f 225/1/3 223/1/3 222/1/3
f 225/2/3 222/2/3 224/2/3
f 226/2/3 215/2/3 223/2/3
f 226/1/3 223/1/3 225/1/3
f 228/2/3 224/2/3 220/2/3
f 229/2/3 224/2/3 228/2/3
f 230/1/3 225/1/3 224/1/3
f 230/2/3 224/2/3 229/2/3
f 231/1/3 225/1/3 230/1/3
f 232/2/3 226/2/3 225/2/3
f 232/1/3 225/1/3 231/1/3
f 234/2/3 229/2/3 228/2/3
f 234/2/3 228/2/3 227/2/3
f 235/1/3 231/1/3 230/1/3
f 235/1/3 230/1/3 229/1/3
f 235/2/3 229/2/3 234/2/3
f 236/2/3 232/2/3 231/2/3
f 236/1/3 231/1/3 235/1/3
f 237/2/3 234/2/3 233/2/3
f 237/2/3 235/2/3 234/2/3
f 237/2/3 236/2/3 235/2/3
f 238/2/3 213/2/3 215/2/3
f 238/2/3 236/2/3 237/2/3
f 238/2/3 226/2/3 232/2/3
f 238/2/3 215/2/3 226/2/3
f 238/2/3 232/2/3 236/2/3
f 239/2/3 237/2/3 233/2/3
f 240/2/3 237/2/3 239/2/3
f 244/2/3 242/2/3 241/2/3
f 245/2/3 242/2/3 244/2/3
f 247/2/3 244/2/3 243/2/3
f 247/2/3 246/2/3 245/2/3
f 247/2/3 245/2/3 244/2/3
f 248/2/3 246/2/3 247/2/3
f 252/3/3 251/3/3 250/3/3
f 254/3/3 253/3/3 252/3/3
f 256/3/3 255/3/3 254/3/3
f 258/3/3 257/3/3 256/3/3
f 260/3/3 252/3/3 250/3/3
f 260/3/3 259/3/3 258/3/3
f 260/3/3 258/3/3 256/3/3
f 260/3/3 256/3/3 254/3/3
f 260/3/3 254/3/3 252/3/3
f 261/3/3 259/3/3 260/3/3
f 262/3/3 259/3/3 261/3/3
f 263/3/3 259/3/3 262/3/3
f 264/3/3 259/3/3 263/3/3
f 265/2/3 249/2/3 248/2/3
f 266/2/3 249/2/3 265/2/3
f 267/4/3 261/4/3 260/4/3
f 268/3/3 262/3/3 261/3/3
f 268/4/3 261/4/3 267/4/3
f 269/3/3 262/3/3 268/3/3
f 270/3/3 262/3/3 269/3/3
f 271/4/3 263/4/3 262/4/3
f 271/3/3 262/3/3 270/3/3
f 272/4/3 263/4/3 271/4/3
f 273/3/3 270/3/3 269/3/3
f 273/4/3 271/4/3 270/4/3
f 274/3/3 272/3/3 271/3/3
f 274/4/3 271/4/3 273/4/3
f 275/4/3 263/4/3 272/4/3
f 275/3/3 272/3/3 274/3/3
f 276/3/3 264/3/3 263/3/3
f 276/4/3 263/4/3 275/4/3
f 276/3/3 265/3/3 264/3/3
f 277/3/3 268/3/3 267/3/3
f 277/4/3 269/4/3 268/4/3
f 278/3/3 275/3/3 274/3/3
f 278/4/3 269/4/3 277/4/3
f 278/3/3 274/3/3 273/3/3
f 278/3/3 276/3/3 275/3/3
f 278/3/3 273/3/3 269/3/3
f 279/3/3 276/3/3 278/3/3
f 280/3/3 276/3/3 279/3/3
f 281/3/3 278/3/3 277/3/3
f 281/3/3 279/3/3 278/3/3
f 281/4/3 280/4/3 279/4/3
f 282/4/3 280/4/3 281/4/3
f 283/3/3 282/3/3 281/3/3
f 283/4/3 280/4/3 282/4/3
f 284/3/3 276/3/3 280/3/3
f 284/4/3 280/4/3 283/4/3
f 285/3/3 265/3/3 276/3/3
f 285/3/3 276/3/3 284/3/3
f 286/3/3 265/3/3 285/3/3
f 288/3/3 284/3/3 283/3/3
f 288/3/3 285/3/3 284/3/3
f 289/3/3 285/3/3 288/3/3
f 290/3/3 283/3/3 281/3/3
f 290/3/3 281/3/3 277/3/3
f 290/3/3 288/3/3 283/3/3
f 291/3/3 288/3/3 290/3/3
f 292/3/3 290/3/3 277/3/3
f 293/3/3 290/3/3 292/3/3
f 294/3/3 292/3/3 277/3/3
f 295/3/3 292/3/3 294/3/3
f 296/3/3 277/3/3 267/3/3
f 296/3/3 294/3/3 277/3/3
f 297/3/3 294/3/3 296/3/3
f 298/3/3 296/3/3 267/3/3
f 299/3/3 296/3/3 298/3/3
f 301/2/3 287/2/3 286/2/3
f 302/2/3 287/2/3 301/2/3
f 303/2/3 301/2/3 300/2/3
f 304/2/3 301/2/3 303/2/3
f 305/2/3 301/2/3 304/2/3
f 306/2/3 301/2/3 305/2/3
f 307/2/3 305/2/3 304/2/3
f 308/2/3 305/2/3 307/2/3
f 317/2/3 310/2/3 309/2/3
f 318/1/3 311/1/3 310/1/3
f 318/2/3 310/2/3 317/2/3
f 319/2/3 312/2/3 311/2/3
f 319/1/3 311/1/3 318/1/3
f 320/1/3 313/1/3 312/1/3
f 320/2/3 312/2/3 319/2/3
f 321/2/3 314/2/3 313/2/3
f 321/1/3 313/1/3 320/1/3
f 322/2/3 314/2/3 321/2/3
f 323/2/3 316/2/3 315/2/3
f 324/2/3 316/2/3 323/2/3
f 326/2/3 325/2/3 324/2/3
f 327/2/3 325/2/3 326/2/3
f 335/2/3 329/2/3 328/2/3
f 336/2/3 329/2/3 335/2/3
f 337/2/3 331/2/3 330/2/3
f 338/1/3 332/1/3 331/1/3
f 338/2/3 331/2/3 337/2/3
f 339/2/3 333/2/3 332/2/3
f 339/1/3 332/1/3 338/1/3
f 340/2/3 333/2/3 339/2/3
f 341/2/3 335/2/3 334/2/3
f 342/2/3 335/2/3 341/2/3
f 345/2/3 344/2/3 343/2/3
f 346/2/3 344/2/3 345/2/3
f 347/2/4 348/2/4 351/2/4
f 351/2/4 348/2/4 352/2/4
f 349/2/4 350/2/4 353/2/4
f 353/2/4 350/2/4 354/2/4
f 354/2/4 355/2/4 356/2/4
f 356/2/4 355/2/4 357/2/4
f 358/2/4 359/2/4 363/2/4
f 363/2/4 359/2/4 364/2/4
f 360/2/4 361/2/4 365/2/4
f 365/2/4 361/2/4 366/2/4
f 362/2/4 363/2/4 367/2/4
f 367/2/4 363/2/4 368/2/4
f 369/2/4 370/2/4 372/2/4
f 372/2/4 370/2/4 373/2/4
f 371/2/4 372/2/4 375/2/4
f 373/2/4 374/2/4 375/2/4
f 372/2/4 373/2/4 375/2/4
f 375/2/4 374/2/4 376/2/4
f 376/2/4 377/2/4 378/2/4
f 378/2/4 377/2/4 379/2/4
f 378/1/4 379/1/4 380/1/4
f 380/1/4 379/1/4 381/1/4
f 381/1/4 379/1/4 382/1/4
f 381/2/4 382/2/4 383/2/4
f 383/2/4 382/2/4 384/2/4
f 384/2/4 382/2/4 385/2/4
f 384/1/4 385/1/4 386/1/4
f 386/1/4 385/1/4 387/1/4
f 386/2/4 387/2/4 389/2/4
f 389/2/4 387/2/4 390/2/4
f 388/2/4 389/2/4 391/2/4
f 391/2/4 389/2/4 392/2/4
f 392/2/4 389/2/4 393/2/4
f 393/2/4 389/2/4 394/2/4
f 392/2/4 393/2/4 395/2/4
f 395/2/4 393/2/4 396/2/4
f 397/2/4 398/2/4 399/2/4
f 399/2/4 398/2/4 400/2/4
f 397/2/4 399/2/4 401/2/4
f 401/2/4 399/2/4 402/2/4
f 397/2/4 401/2/4 403/2/4
f 401/1/4 402/1/4 403/1/4
f 403/1/4 402/1/4 404/1/4
f 402/2/4 399/2/4 405/2/4
f 404/1/4 402/1/4 405/1/4
f 405/2/4 399/2/4 406/2/4
f 403/2/4 404/2/4 407/2/4
f 404/1/4 405/1/4 407/1/4
f 405/1/4 406/1/4 407/1/4
f 407/1/4 406/1/4 408/1/4
f 406/2/4 399/2/4 409/2/4
f 408/1/4 406/1/4 409/1/4
f 409/2/4 399/2/4 410/2/4
f 407/2/4 408/2/4 411/2/4
f 408/1/4 409/1/4 411/1/4
f 409/1/4 410/1/4 411/1/4
f 411/1/4 410/1/4 412/1/4
f 411/2/4 412/2/4 413/2/4
f 412/1/4 410/1/4 413/1/4
f 410/2/4 399/2/4 414/2/4
f 413/1/4 410/1/4 414/1/4
f 414/2/4 399/2/4 415/2/4
f 414/1/4 415/1/4 416/1/4
f 415/2/4 399/2/4 416/2/4
f 416/2/4 399/2/4 417/2/4
f 413/2/4 414/2/4 418/2/4
f 414/1/4 416/1/4 418/1/4
f 416/1/4 417/1/4 418/1/4
f 418/1/4 417/1/4 419/1/4
f 417/2/4 399/2/4 420/2/4
f 419/1/4 417/1/4 420/1/4
f 420/2/4 399/2/4 421/2/4
f 399/1/4 400/1/4 422/1/4
f 421/2/4 399/2/4 422/2/4
f 422/1/4 400/1/4 423/1/4
f 420/1/4 421/1/4 424/1/4
f 418/2/4 419/2/4 424/2/4
f 419/1/4 420/1/4 424/1/4
f 424/1/4 421/1/4 425/1/4
f 422/2/4 423/2/4 426/2/4
f 425/1/4 421/1/4 426/1/4
f 421/2/4 422/2/4 426/2/4
f 426/2/4 423/2/4 427/2/4
f 424/2/4 425/2/4 428/2/4
f 425/1/4 426/1/4 428/1/4
f 426/1/4 427/1/4 428/1/4
f 428/1/4 427/1/4 429/1/4
f 427/2/4 423/2/4 430/2/4
f 429/1/4 427/1/4 430/1/4
f 430/2/4 423/2/4 431/2/4
f 428/2/4 429/2/4 432/2/4
f 429/1/4 430/1/4 432/1/4
f 430/1/4 431/1/4 432/1/4
f 431/2/4 423/2/4 433/2/4
f 432/1/4 431/1/4 433/1/4
f 411/2/4 413/2/4 434/2/4
f 397/2/4 403/2/4 434/2/4
f 432/2/4 433/2/4 434/2/4
f 424/2/4 428/2/4 434/2/4
f 418/2/4 424/2/4 434/2/4
f 413/2/4 418/2/4 434/2/4
f 428/2/4 432/2/4 434/2/4
f 407/2/4 411/2/4 434/2/4
f 403/2/4 407/2/4 434/2/4
f 433/2/4 423/2/4 435/2/4
f 434/2/4 433/2/4 435/2/4
f 441/2/5 437/2/5 436/2/5
f 442/2/5 437/2/5 441/2/5
f 445/2/5 439/2/5 438/2/5
f 446/2/5 439/2/5 445/2/5
f 448/2/5 441/2/5 440/2/5
f 449/3/5 442/3/5 441/3/5
f 449/3/5 443/3/5 442/3/5
f 449/2/5 441/2/5 448/2/5
f 450/4/5 444/4/5 443/4/5
f 450/3/5 443/3/5 449/3/5
f 451/3/5 445/3/5 444/3/5
f 451/4/5 444/4/5 450/4/5
f 451/3/5 446/3/5 445/3/5
f 452/2/5 439/2/5 446/2/5
f 452/3/5 446/3/5 451/3/5
f 453/2/5 439/2/5 452/2/5
f 455/2/5 448/2/5 447/2/5
f 456/3/5 449/3/5 448/3/5
f 456/2/5 448/2/5 455/2/5
f 456/3/5 451/3/5 450/3/5
f 456/3/5 453/3/5 452/3/5
f 456/3/5 452/3/5 451/3/5
f 456/3/5 450/3/5 449/3/5
f 457/3/5 453/3/5 456/3/5
f 458/3/5 453/3/5 457/3/5
f 459/2/5 454/2/5 453/2/5
f 459/3/5 453/3/5 458/3/5
f 460/2/5 454/2/5 459/2/5
f 461/2/5 457/2/5 456/2/5
f 462/3/5 458/3/5 457/3/5
f 462/2/5 457/2/5 461/2/5
f 463/2/5 459/2/5 458/2/5
f 463/3/5 458/3/5 462/3/5
f 464/2/5 459/2/5 463/2/5
f 465/2/5 463/2/5 462/2/5
f 466/2/5 463/2/5 465/2/5
f 471/2/5 468/2/5 467/2/5
f 472/2/5 468/2/5 471/2/5
f 473/2/5 470/2/5 469/2/5
f 474/2/5 470/2/5 473/2/5
f 477/2/5 476/2/5 475/2/5
f 478/2/5 476/2/5 477/2/5
f 481/2/5 480/2/5 479/2/5
f 482/2/5 480/2/5 481/2/5
f 485/2/5 484/2/5 483/2/5
f 486/2/5 484/2/5 485/2/5
f 489/2/5 488/2/5 487/2/5
f 490/2/5 488/2/5 489/2/5
f 493/2/5 492/2/5 491/2/5
f 494/2/5 492/2/5 493/2/5
f 497/2/5 496/2/5 495/2/5
f 498/2/5 496/2/5 497/2/5
f 501/2/5 500/2/5 499/2/5
f 502/2/5 500/2/5 501/2/5
f 507/2/5 504/2/5 503/2/5
f 508/2/5 504/2/5 507/2/5
f 509/2/5 506/2/5 505/2/5
f 510/2/5 506/2/5 509/2/5
f 515/2/5 512/2/5 511/2/5
f 516/2/5 512/2/5 515/2/5
f 517/2/5 514/2/5 513/2/5
f 518/2/5 514/2/5 517/2/5
f 521/2/5 520/2/5 519/2/5
f 522/2/5 520/2/5 521/2/5
f 525/2/5 524/2/5 523/2/5
f 526/2/5 524/2/5 525/2/5
f 527/2/6 528/2/6 529/2/6
f 529/2/6 528/2/6 530/2/6
f 531/2/6 532/2/6 535/2/6
f 535/2/6 532/2/6 536/2/6
f 533/2/6 534/2/6 537/2/6
f 537/2/6 534/2/6 538/2/6
f 539/2/6 540/2/6 543/2/6
f 543/2/6 540/2/6 544/2/6
f 541/2/6 542/2/6 545/2/6
f 545/2/6 542/2/6 546/2/6
f 547/2/6 548/2/6 552/2/6
f 552/2/6 548/2/6 553/2/6
f 549/2/6 550/2/6 554/2/6
f 554/2/6 550/2/6 555/2/6
f 551/2/6 552/2/6 558/2/6
f 558/2/6 552/2/6 559/2/6
f 555/2/6 556/2/6 560/2/6
f 560/2/6 556/2/6 561/2/6
f 557/2/6 558/2/6 563/2/6
f 563/2/6 558/2/6 564/2/6
f 553/3/6 554/3/6 566/3/6
f 566/3/6 554/3/6 567/3/6
f 561/2/6 562/2/6 569/2/6
f 569/2/6 562/2/6 570/2/6
f 564/2/6 565/2/6 571/2/6
f 571/2/6 565/2/6 572/2/6
f 568/2/6 569/2/6 579/2/6
f 579/2/6 569/2/6 580/2/6
f 572/2/6 573/2/6 581/2/6
f 573/2/6 574/2/6 581/2/6
f 574/1/6 575/1/6 582/1/6
f 581/2/6 574/2/6 582/2/6
f 575/1/6 576/1/6 582/1/6
f 577/2/6 578/2/6 583/2/6
f 582/1/6 576/1/6 583/1/6
f 578/2/6 579/2/6 583/2/6
f 576/2/6 577/2/6 583/2/6
f 583/2/6 579/2/6 584/2/6
f 585/2/6 586/2/6 590/2/6
f 587/2/6 588/2/6 591/2/6
f 589/2/6 590/2/6 593/2/6
f 590/2/6 586/2/6 593/2/6
f 593/2/6 586/2/6 594/2/6
f 591/2/6 592/2/6 595/2/6
f 587/2/6 591/2/6 595/2/6
f 595/2/6 592/2/6 596/2/6
f 587/2/6 595/2/6 597/2/6
f 595/1/6 596/1/6 598/1/6
f 597/2/6 595/2/6 598/2/6
f 598/1/6 596/1/6 599/1/6
f 596/2/6 592/2/6 600/2/6
f 599/1/6 596/1/6 600/1/6
f 589/2/6 593/2/6 601/2/6
f 601/2/6 593/2/6 602/2/6
f 594/2/6 586/2/6 603/2/6
f 593/1/6 594/1/6 603/1/6
f 603/2/6 586/2/6 604/2/6
f 604/2/6 586/2/6 605/2/6
f 587/2/6 597/2/6 606/2/6
f 606/2/6 597/2/6 607/2/6
f 598/1/6 599/1/6 608/1/6
f 607/2/6 597/2/6 608/2/6
f 597/1/6 598/1/6 608/1/6
f 608/1/6 599/1/6 609/1/6
f 599/2/6 600/2/6 610/2/6
f 609/1/6 599/1/6 610/1/6
f 600/2/6 592/2/6 611/2/6
f 610/2/6 600/2/6 611/2/6
f 611/2/6 592/2/6 612/2/6
f 602/2/6 593/2/6 613/2/6
f 593/1/6 603/1/6 614/1/6
f 613/2/6 593/2/6 614/2/6
f 603/1/6 604/1/6 614/1/6
f 606/2/6 607/2/6 615/2/6
f 614/1/6 604/1/6 615/1/6
f 604/2/6 605/2/6 615/2/6
f 605/2/6 606/2/6 615/2/6
f 607/1/6 608/1/6 616/1/6
f 615/2/6 607/2/6 616/2/6
f 608/1/6 609/1/6 616/1/6
f 610/2/6 611/2/6 617/2/6
f 616/1/6 609/1/6 617/1/6
f 609/2/6 610/2/6 617/2/6
f 617/2/6 611/2/6 618/2/6
