# MagicaVoxel @ Ephtracy

# group
o 

# material
mtllib granny_left_arm.mtl
usemtl palette

# normals
vn -1 0 0
vn 1 0 0
vn 0 0 1
vn 0 0 -1
vn 0 -1 0
vn 0 1 0

# texcoords
vt 0.0566406 0.5
vt 0.0605469 0.5
vt 0.896484 0.5
vt 0.900391 0.5
vt 0.958984 0.5

# verts
v 1.2 4.9 0.5
v 1.2 4.9 0.3
v 1.2 4.9 0.1
v 1.2 5 0.6
v 1.2 5 0.5
v 1.2 5 0.3
v 1.2 5 0.1
v 1.2 5 5.96046e-08
v 1.2 5.4 0.6
v 1.2 5.4 0.5
v 1.2 5.4 0.1
v 1.2 5.4 5.96046e-08
v 1.2 5.5 0.5
v 1.2 5.5 0.1
v 3.1 4.9 0.5
v 3.1 4.9 0.1
v 3.1 5 0.6
v 3.1 5 0.5
v 3.1 5 0.1
v 3.1 5 5.96046e-08
v 3.1 5.4 0.6
v 3.1 5.4 0.5
v 3.1 5.4 0.1
v 3.1 5.4 5.96046e-08
v 3.1 5.5 0.5
v 3.1 5.5 0.1
v 3.4 5 0.5
v 3.4 5 0.1
v 3.4 5.1 0.5
v 3.4 5.1 0.4
v 3.4 5.2 0.5
v 3.4 5.2 0.4
v 3.4 5.2 0.1
v 3.6 5.3 0.5
v 3.6 5.3 0.1
v 3.6 5.4 0.5
v 3.6 5.4 0.1
v 3.7 5.2 0.5
v 3.7 5.2 0.1
v 3.7 5.3 0.5
v 3.7 5.3 0.1
v 1.2 5 0.6
v 1.2 5.4 0.6
v 1.7 5.2 0.6
v 1.7 5.3 0.6
v 1.8 5.1 0.6
v 1.8 5.2 0.6
v 1.9 5.2 0.6
v 1.9 5.3 0.6
v 2.4 5.1 0.6
v 2.4 5.2 0.6
v 3.1 5 0.6
v 3.1 5.4 0.6
v 1.2 4.9 0.5
v 1.2 5 0.5
v 1.2 5.4 0.5
v 1.2 5.5 0.5
v 1.3 4.9 0.5
v 1.3 5 0.5
v 3.1 4.9 0.5
v 3.1 5 0.5
v 3.1 5.4 0.5
v 3.1 5.5 0.5
v 3.3 5.1 0.5
v 3.3 5.4 0.5
v 3.4 5 0.5
v 3.4 5.1 0.5
v 3.4 5.2 0.5
v 3.4 5.4 0.5
v 3.6 5.3 0.5
v 3.6 5.4 0.5
v 3.7 5.2 0.5
v 3.7 5.3 0.5
v 1.2 4.9 0.1
v 1.2 5 0.1
v 1.2 5.4 0.1
v 1.2 5.5 0.1
v 1.4 5.4 0.1
v 1.7 5 0.1
v 1.8 4.9 0.1
v 1.8 5 0.1
v 1.9 5 0.1
v 2.2 5.4 0.1
v 2.5 4.9 0.1
v 2.5 5 0.1
v 3.1 4.9 0.1
v 3.1 5 0.1
v 3.1 5.4 0.1
v 3.1 5.5 0.1
v 3.4 5 0.1
v 3.4 5.2 0.1
v 3.4 5.3 0.1
v 3.4 5.4 0.1
v 3.5 5.3 0.1
v 3.5 5.4 0.1
v 3.6 5.3 0.1
v 3.6 5.4 0.1
v 3.7 5.2 0.1
v 3.7 5.3 0.1
v 1.2 5 5.96046e-08
v 1.2 5.4 5.96046e-08
v 1.4 5.3 5.96046e-08
v 1.4 5.4 5.96046e-08
v 1.7 5 5.96046e-08
v 1.7 5.1 5.96046e-08
v 1.9 5 5.96046e-08
v 1.9 5.1 5.96046e-08
v 2.2 5.2 5.96046e-08
v 2.2 5.3 5.96046e-08
v 2.2 5.4 5.96046e-08
v 2.4 5.1 5.96046e-08
v 2.4 5.2 5.96046e-08
v 2.5 5.1 5.96046e-08
v 2.5 5.3 5.96046e-08
v 3.1 5 5.96046e-08
v 3.1 5.4 5.96046e-08
v 1.2 4.9 0.5
v 1.3 4.9 0.5
v 3.1 4.9 0.5
v 1.3 4.9 0.4
v 1.6 4.9 0.4
v 1.2 4.9 0.3
v 1.5 4.9 0.3
v 1.5 4.9 0.2
v 1.6 4.9 0.2
v 1.8 4.9 0.2
v 2.5 4.9 0.2
v 1.2 4.9 0.1
v 1.8 4.9 0.1
v 2.5 4.9 0.1
v 3.1 4.9 0.1
v 1.2 5 0.6
v 3.1 5 0.6
v 1.2 5 0.5
v 1.3 5 0.5
v 3.1 5 0.5
v 3.4 5 0.5
v 1.2 5 0.1
v 1.7 5 0.1
v 1.8 5 0.1
v 1.9 5 0.1
v 2.5 5 0.1
v 3.1 5 0.1
v 3.4 5 0.1
v 1.2 5 5.96046e-08
v 1.7 5 5.96046e-08
v 1.9 5 5.96046e-08
v 3.1 5 5.96046e-08
v 3.4 5.2 0.5
v 3.7 5.2 0.5
v 3.4 5.2 0.4
v 3.4 5.2 0.1
v 3.7 5.2 0.1
v 3.6 5.3 0.5
v 3.7 5.3 0.5
v 3.6 5.3 0.1
v 3.7 5.3 0.1
v 1.2 5.4 0.6
v 3.1 5.4 0.6
v 1.2 5.4 0.5
v 3.1 5.4 0.5
v 3.3 5.4 0.5
v 3.4 5.4 0.5
v 3.6 5.4 0.5
v 3.3 5.4 0.4
v 3.4 5.4 0.4
v 3.4 5.4 0.3
v 3.5 5.4 0.3
v 1.2 5.4 0.1
v 1.4 5.4 0.1
v 2.2 5.4 0.1
v 3.1 5.4 0.1
v 3.4 5.4 0.1
v 3.5 5.4 0.1
v 3.6 5.4 0.1
v 1.2 5.4 5.96046e-08
v 1.4 5.4 5.96046e-08
v 2.2 5.4 5.96046e-08
v 3.1 5.4 5.96046e-08
v 1.2 5.5 0.5
v 3.1 5.5 0.5
v 1.2 5.5 0.1
v 3.1 5.5 0.1

# faces
f 5/3/1 2/3/1 1/3/1
f 6/4/1 3/4/1 2/4/1
f 6/3/1 2/3/1 5/3/1
f 7/4/1 3/4/1 6/4/1
f 9/4/1 5/4/1 4/4/1
f 9/4/1 8/4/1 7/4/1
f 9/4/1 7/4/1 6/4/1
f 9/4/1 6/4/1 5/4/1
f 10/4/1 8/4/1 9/4/1
f 11/4/1 8/4/1 10/4/1
f 12/4/1 8/4/1 11/4/1
f 13/4/1 11/4/1 10/4/1
f 14/4/1 11/4/1 13/4/1
f 15/4/2 16/4/2 18/4/2
f 18/4/2 16/4/2 19/4/2
f 17/4/2 18/4/2 21/4/2
f 21/4/2 18/4/2 22/4/2
f 19/4/2 20/4/2 23/4/2
f 23/4/2 20/4/2 24/4/2
f 22/4/2 23/4/2 25/4/2
f 25/4/2 23/4/2 26/4/2
f 27/2/2 28/2/2 29/2/2
f 29/2/2 28/2/2 30/2/2
f 29/1/2 30/1/2 31/1/2
f 30/2/2 28/2/2 32/2/2
f 31/1/2 30/1/2 32/1/2
f 32/2/2 28/2/2 33/2/2
f 34/2/2 35/2/2 36/2/2
f 36/2/2 35/2/2 37/2/2
f 38/2/2 39/2/2 40/2/2
f 40/2/2 39/2/2 41/2/2
f 44/4/3 43/4/3 42/4/3
f 45/4/3 43/4/3 44/4/3
f 46/4/3 44/4/3 42/4/3
f 47/3/3 45/3/3 44/3/3
f 47/4/3 44/4/3 46/4/3
f 48/3/3 47/3/3 46/3/3
f 48/3/3 45/3/3 47/3/3
f 49/4/3 43/4/3 45/4/3
f 49/3/3 45/3/3 48/3/3
f 50/3/3 48/3/3 46/3/3
f 50/4/3 46/4/3 42/4/3
f 51/4/3 49/4/3 48/4/3
f 51/3/3 48/3/3 50/3/3
f 52/4/3 50/4/3 42/4/3
f 52/4/3 51/4/3 50/4/3
f 53/4/3 43/4/3 49/4/3
f 53/4/3 51/4/3 52/4/3
f 53/4/3 49/4/3 51/4/3
f 58/3/3 55/3/3 54/3/3
f 59/3/3 55/3/3 58/3/3
f 60/4/3 59/4/3 58/4/3
f 61/4/3 59/4/3 60/4/3
f 62/4/3 57/4/3 56/4/3
f 63/4/3 57/4/3 62/4/3
f 64/2/3 62/2/3 61/2/3
f 65/2/3 62/2/3 64/2/3
f 66/2/3 64/2/3 61/2/3
f 67/1/3 65/1/3 64/1/3
f 67/2/3 64/2/3 66/2/3
f 68/1/3 65/1/3 67/1/3
f 69/1/3 65/1/3 68/1/3
f 70/2/3 69/2/3 68/2/3
f 71/2/3 69/2/3 70/2/3
f 72/2/3 70/2/3 68/2/3
f 73/2/3 70/2/3 72/2/3
f 76/4/4 77/4/4 78/4/4
f 74/4/4 75/4/4 79/4/4
f 74/4/4 79/4/4 80/4/4
f 80/4/4 79/4/4 81/4/4
f 80/3/4 81/3/4 82/3/4
f 78/4/4 77/4/4 83/4/4
f 80/3/4 82/3/4 84/3/4
f 84/3/4 82/3/4 85/3/4
f 84/4/4 85/4/4 86/4/4
f 86/4/4 85/4/4 87/4/4
f 83/4/4 77/4/4 88/4/4
f 88/4/4 77/4/4 89/4/4
f 87/2/4 88/2/4 90/2/4
f 90/2/4 88/2/4 91/2/4
f 91/2/4 88/2/4 92/2/4
f 92/2/4 88/2/4 93/2/4
f 91/2/4 92/2/4 94/2/4
f 92/1/4 93/1/4 94/1/4
f 94/1/4 93/1/4 95/1/4
f 91/2/4 94/2/4 96/2/4
f 94/2/4 95/2/4 96/2/4
f 96/2/4 95/2/4 97/2/4
f 91/2/4 96/2/4 98/2/4
f 98/2/4 96/2/4 99/2/4
f 100/4/4 101/4/4 102/4/4
f 102/4/4 101/4/4 103/4/4
f 100/4/4 102/4/4 104/4/4
f 104/4/4 102/4/4 105/4/4
f 104/3/4 105/3/4 106/3/4
f 105/4/4 102/4/4 107/4/4
f 106/3/4 105/3/4 107/3/4
f 106/4/4 107/4/4 108/4/4
f 107/4/4 102/4/4 108/4/4
f 102/3/4 103/3/4 109/3/4
f 108/4/4 102/4/4 109/4/4
f 109/3/4 103/3/4 110/3/4
f 106/4/4 108/4/4 111/4/4
f 108/3/4 109/3/4 112/3/4
f 111/4/4 108/4/4 112/4/4
f 106/4/4 111/4/4 113/4/4
f 111/3/4 112/3/4 113/3/4
f 112/3/4 109/3/4 114/3/4
f 113/3/4 112/3/4 114/3/4
f 109/4/4 110/4/4 114/4/4
f 106/4/4 113/4/4 115/4/4
f 113/4/4 114/4/4 115/4/4
f 114/4/4 110/4/4 116/4/4
f 115/4/4 114/4/4 116/4/4
f 120/3/5 118/3/5 117/3/5
f 120/4/5 119/4/5 118/4/5
f 121/4/5 119/4/5 120/4/5
f 122/3/5 120/3/5 117/3/5
f 122/3/5 121/3/5 120/3/5
f 123/3/5 121/3/5 122/3/5
f 124/4/5 123/4/5 122/4/5
f 124/3/5 121/3/5 123/3/5
f 125/4/5 119/4/5 121/4/5
f 125/3/5 121/3/5 124/3/5
f 126/4/5 119/4/5 125/4/5
f 127/4/5 119/4/5 126/4/5
f 128/4/5 124/4/5 122/4/5
f 128/4/5 125/4/5 124/4/5
f 128/4/5 126/4/5 125/4/5
f 129/3/5 127/3/5 126/3/5
f 129/4/5 126/4/5 128/4/5
f 130/4/5 119/4/5 127/4/5
f 130/3/5 127/3/5 129/3/5
f 131/4/5 119/4/5 130/4/5
f 134/4/5 133/4/5 132/4/5
f 135/4/5 133/4/5 134/4/5
f 136/4/5 133/4/5 135/4/5
f 143/2/5 137/2/5 136/2/5
f 144/2/5 137/2/5 143/2/5
f 145/4/5 139/4/5 138/4/5
f 146/3/5 140/3/5 139/3/5
f 146/4/5 139/4/5 145/4/5
f 146/3/5 141/3/5 140/3/5
f 147/4/5 142/4/5 141/4/5
f 147/3/5 141/3/5 146/3/5
f 147/4/5 143/4/5 142/4/5
f 148/4/5 143/4/5 147/4/5
f 151/2/5 150/2/5 149/2/5
f 152/2/5 150/2/5 151/2/5
f 153/2/5 150/2/5 152/2/5
f 154/2/6 155/2/6 156/2/6
f 156/2/6 155/2/6 157/2/6
f 158/4/6 159/4/6 160/4/6
f 160/4/6 159/4/6 161/4/6
f 161/2/6 162/2/6 165/2/6
f 162/1/6 163/1/6 165/1/6
f 163/2/6 164/2/6 166/2/6
f 165/1/6 163/1/6 166/1/6
f 165/2/6 166/2/6 167/2/6
f 166/2/6 164/2/6 167/2/6
f 167/2/6 164/2/6 168/2/6
f 161/2/6 165/2/6 172/2/6
f 165/2/6 167/2/6 172/2/6
f 167/1/6 168/1/6 173/1/6
f 172/2/6 167/2/6 173/2/6
f 168/2/6 164/2/6 174/2/6
f 173/1/6 168/1/6 174/1/6
f 174/2/6 164/2/6 175/2/6
f 169/4/6 170/4/6 176/4/6
f 170/3/6 171/3/6 177/3/6
f 176/4/6 170/4/6 177/4/6
f 171/4/6 172/4/6 178/4/6
f 177/3/6 171/3/6 178/3/6
f 178/4/6 172/4/6 179/4/6
f 180/4/6 181/4/6 182/4/6
f 182/4/6 181/4/6 183/4/6
