# MagicaVoxel @ Ephtracy

# group
o 

# material
mtllib table clock.vox.mtl
usemtl palette

# normals
vn -1 0 0
vn 1 0 0
vn 0 0 1
vn 0 0 -1
vn 0 -1 0
vn 0 1 0

# texcoords
vt 0.970703 0.5
vt 0.974609 0.5
vt 0.978516 0.5
vt 0.994141 0.5

# verts
v -1.4 0 0.6
v -1.4 0 0.5
v -1.4 0 -0.5
v -1.4 0.1 0.6
v -1.4 0.1 0.5
v -1.4 0.2 0.2
v -1.4 0.2 -0.2
v -1.4 0.3 0.2
v -1.4 0.3 -0.2
v -1.4 0.4 0.3
v -1.4 0.4 0.2
v -1.4 0.5 0.3
v -1.4 0.5 0.2
v -1.4 0.5 -0.1
v -1.4 0.5 -0.3
v -1.4 0.6 -0.1
v -1.4 0.6 -0.3
v -1.4 0.7 0.4
v -1.4 0.7 0.3
v -1.4 0.9 0.4
v -1.4 0.9 0.3
v -1.4 1 -0.1
v -1.4 1 -0.4
v -1.4 1.1 -0.1
v -1.4 1.1 -0.4
v -1.4 1.2 0.6
v -1.4 1.2 -0.5
v -1.2 1.2 0.3
v -1.2 1.2 -0.2
v -1.2 1.3 0.3
v -1.2 1.3 -0.2
v 0.2 1.2 0.3
v 0.2 1.2 -0.2
v 0.2 1.3 0.3
v 0.2 1.3 -0.2
v -0.3 1.2 0.3
v -0.3 1.2 -0.2
v -0.3 1.3 0.3
v -0.3 1.3 -0.2
v 1.1 1.2 0.3
v 1.1 1.2 -0.2
v 1.1 1.3 0.3
v 1.1 1.3 -0.2
v 1.3 0 0.6
v 1.3 0 -0.5
v 1.3 0.1 0.3
v 1.3 0.1 -0.1
v 1.3 0.2 0.3
v 1.3 0.2 -0.1
v 1.3 0.3 -0.2
v 1.3 0.3 -0.3
v 1.3 0.4 -0.2
v 1.3 0.4 -0.3
v 1.3 0.6 0.4
v 1.3 0.6 5.96046e-08
v 1.3 0.6 -0.1
v 1.3 0.6 -0.2
v 1.3 0.7 0.4
v 1.3 0.7 5.96046e-08
v 1.3 0.7 -0.1
v 1.3 0.8 0.4
v 1.3 0.8 0.3
v 1.3 0.8 5.96046e-08
v 1.3 0.8 -0.2
v 1.3 0.9 0.5
v 1.3 0.9 0.4
v 1.3 1 0.5
v 1.3 1 0.3
v 1.3 1.2 0.6
v 1.3 1.2 -0.5
v -1.4 0 0.6
v -1.4 0.1 0.6
v -1.4 1.2 0.6
v -1.3 0 0.6
v -1.3 0.1 0.6
v -1.3 0.2 0.6
v -1.3 1.1 0.6
v -1.2 0.1 0.6
v -1.2 0.2 0.6
v -1.1 0.1 0.6
v -1.1 0.2 0.6
v -1.1 1.1 0.6
v -1.1 1.2 0.6
v -1 1.1 0.6
v -1 1.2 0.6
v -0.6 0 0.6
v -0.6 0.1 0.6
v -0.5 0 0.6
v -0.5 0.1 0.6
v 0.4 0 0.6
v 0.4 0.1 0.6
v 0.5 0 0.6
v 0.5 0.1 0.6
v 0.8 1.1 0.6
v 0.8 1.2 0.6
v 0.9 0.1 0.6
v 0.9 0.2 0.6
v 0.9 1.1 0.6
v 0.9 1.2 0.6
v 1 0.1 0.6
v 1 0.2 0.6
v 1.2 0.2 0.6
v 1.2 1.1 0.6
v 1.3 0 0.6
v 1.3 1.2 0.6
v -1.2 1.2 0.3
v -1.2 1.3 0.3
v -0.3 1.2 0.3
v -0.3 1.3 0.3
v 0.2 1.2 0.3
v 0.2 1.3 0.3
v 1.1 1.2 0.3
v 1.1 1.3 0.3
v -1.2 1.2 -0.2
v -1.2 1.3 -0.2
v -0.3 1.2 -0.2
v -0.3 1.3 -0.2
v 0.2 1.2 -0.2
v 0.2 1.3 -0.2
v 1.1 1.2 -0.2
v 1.1 1.3 -0.2
v -1.4 0 -0.5
v -1.4 1.2 -0.5
v -1.2 0.4 -0.5
v -1.2 0.6 -0.5
v -1.1 0.3 -0.5
v -1.1 0.4 -0.5
v -1.1 0.5 -0.5
v -1.1 0.6 -0.5
v -1 0.3 -0.5
v -1 0.5 -0.5
v -0.7 0.3 -0.5
v -0.7 0.5 -0.5
v -0.7 1 -0.5
v -0.7 1.1 -0.5
v -0.6 0.4 -0.5
v -0.6 0.5 -0.5
v -0.6 0.8 -0.5
v -0.6 0.9 -0.5
v -0.6 1 -0.5
v -0.6 1.1 -0.5
v -0.5 0.1 -0.5
v -0.5 0.2 -0.5
v -0.5 0.3 -0.5
v -0.5 0.4 -0.5
v -0.2 0.1 -0.5
v -0.2 0.2 -0.5
v 0 0.8 -0.5
v 0 0.9 -0.5
v 0.2 0.4 -0.5
v 0.2 0.6 -0.5
v 0.3 0.4 -0.5
v 0.3 0.6 -0.5
v 0.4 0.8 -0.5
v 0.4 0.9 -0.5
v 0.7 0.2 -0.5
v 0.7 0.3 -0.5
v 0.7 0.7 -0.5
v 0.7 0.8 -0.5
v 0.7 0.9 -0.5
v 0.8 0.7 -0.5
v 0.8 0.8 -0.5
v 1 0.2 -0.5
v 1 0.3 -0.5
v 1.3 0 -0.5
v 1.3 1.2 -0.5
v -1.4 0 0.6
v -1.3 0 0.6
v -0.6 0 0.6
v -0.5 0 0.6
v 0.4 0 0.6
v 0.5 0 0.6
v 1.3 0 0.6
v -1.4 0 0.5
v -1.3 0 0.5
v -0.6 0 0.5
v -0.5 0 0.5
v 0.4 0 0.5
v 0.5 0 0.5
v 1.2 0 0.5
v -1.3 0 -0.4
v 1.2 0 -0.4
v -1.4 0 -0.5
v 1.3 0 -0.5
v -1.4 1.2 0.6
v -1.1 1.2 0.6
v -1 1.2 0.6
v 0.8 1.2 0.6
v 0.9 1.2 0.6
v 1.3 1.2 0.6
v -1.1 1.2 0.5
v -1 1.2 0.5
v 0.8 1.2 0.5
v 0.9 1.2 0.5
v -1.2 1.2 0.3
v -0.3 1.2 0.3
v 0.2 1.2 0.3
v 1.1 1.2 0.3
v -1.2 1.2 -0.2
v -0.3 1.2 -0.2
v 0.2 1.2 -0.2
v 1.1 1.2 -0.2
v -1.4 1.2 -0.5
v 1.3 1.2 -0.5
v -1.2 1.3 0.3
v -0.3 1.3 0.3
v 0.2 1.3 0.3
v 1.1 1.3 0.3
v -1.2 1.3 -0.2
v -0.3 1.3 -0.2
v 0.2 1.3 -0.2
v 1.1 1.3 -0.2

# faces
f 4/2/1 2/2/1 1/2/1
f 5/1/1 3/1/1 2/1/1
f 5/2/1 2/2/1 4/2/1
f 6/1/1 5/1/1 4/1/1
f 6/1/1 3/1/1 5/1/1
f 7/1/1 3/1/1 6/1/1
f 8/1/1 6/1/1 4/1/1
f 8/2/1 7/2/1 6/2/1
f 9/1/1 3/1/1 7/1/1
f 9/2/1 7/2/1 8/2/1
f 10/1/1 8/1/1 4/1/1
f 10/1/1 9/1/1 8/1/1
f 11/1/1 9/1/1 10/1/1
f 12/1/1 10/1/1 4/1/1
f 12/2/1 11/2/1 10/2/1
f 13/1/1 9/1/1 11/1/1
f 13/2/1 11/2/1 12/2/1
f 14/1/1 9/1/1 13/1/1
f 15/1/1 3/1/1 9/1/1
f 15/1/1 9/1/1 14/1/1
f 16/1/1 14/1/1 13/1/1
f 16/1/1 13/1/1 12/1/1
f 16/2/1 15/2/1 14/2/1
f 17/1/1 3/1/1 15/1/1
f 17/2/1 15/2/1 16/2/1
f 18/1/1 16/1/1 12/1/1
f 18/1/1 12/1/1 4/1/1
f 18/1/1 17/1/1 16/1/1
f 19/1/1 17/1/1 18/1/1
f 20/1/1 18/1/1 4/1/1
f 20/2/1 19/2/1 18/2/1
f 21/1/1 17/1/1 19/1/1
f 21/2/1 19/2/1 20/2/1
f 22/1/1 21/1/1 20/1/1
f 22/1/1 17/1/1 21/1/1
f 23/1/1 3/1/1 17/1/1
f 23/1/1 17/1/1 22/1/1
f 24/1/1 22/1/1 20/1/1
f 24/2/1 23/2/1 22/2/1
f 25/1/1 3/1/1 23/1/1
f 25/2/1 23/2/1 24/2/1
f 26/1/1 24/1/1 20/1/1
f 26/1/1 20/1/1 4/1/1
f 26/1/1 25/1/1 24/1/1
f 27/1/1 3/1/1 25/1/1
f 27/1/1 25/1/1 26/1/1
f 30/4/1 29/4/1 28/4/1
f 31/4/1 29/4/1 30/4/1
f 34/4/1 33/4/1 32/4/1
f 35/4/1 33/4/1 34/4/1
f 36/4/2 37/4/2 38/4/2
f 38/4/2 37/4/2 39/4/2
f 40/4/2 41/4/2 42/4/2
f 42/4/2 41/4/2 43/4/2
f 44/1/2 45/1/2 46/1/2
f 46/1/2 45/1/2 47/1/2
f 44/1/2 46/1/2 48/1/2
f 46/2/2 47/2/2 48/2/2
f 47/1/2 45/1/2 49/1/2
f 48/2/2 47/2/2 49/2/2
f 48/1/2 49/1/2 50/1/2
f 49/1/2 45/1/2 50/1/2
f 50/1/2 45/1/2 51/1/2
f 48/1/2 50/1/2 52/1/2
f 50/2/2 51/2/2 52/2/2
f 51/1/2 45/1/2 53/1/2
f 52/2/2 51/2/2 53/2/2
f 44/1/2 48/1/2 54/1/2
f 48/1/2 52/1/2 54/1/2
f 52/1/2 53/1/2 54/1/2
f 54/1/2 53/1/2 55/1/2
f 55/1/2 53/1/2 56/1/2
f 56/1/2 53/1/2 57/1/2
f 44/1/2 54/1/2 58/1/2
f 54/2/2 55/2/2 58/2/2
f 55/1/2 56/1/2 59/1/2
f 58/2/2 55/2/2 59/2/2
f 56/2/2 57/2/2 60/2/2
f 59/1/2 56/1/2 60/1/2
f 58/1/2 59/1/2 61/1/2
f 44/1/2 58/1/2 61/1/2
f 61/1/2 59/1/2 62/1/2
f 59/2/2 60/2/2 63/2/2
f 62/1/2 59/1/2 63/1/2
f 57/1/2 53/1/2 64/1/2
f 63/2/2 60/2/2 64/2/2
f 60/2/2 57/2/2 64/2/2
f 44/1/2 61/1/2 65/1/2
f 61/2/2 62/2/2 66/2/2
f 65/1/2 61/1/2 66/1/2
f 44/1/2 65/1/2 67/1/2
f 65/2/2 66/2/2 67/2/2
f 62/1/2 63/1/2 68/1/2
f 67/2/2 66/2/2 68/2/2
f 66/2/2 62/2/2 68/2/2
f 63/1/2 64/1/2 68/1/2
f 44/1/2 67/1/2 69/1/2
f 67/1/2 68/1/2 69/1/2
f 53/1/2 45/1/2 70/1/2
f 69/1/2 68/1/2 70/1/2
f 68/1/2 64/1/2 70/1/2
f 64/1/2 53/1/2 70/1/2
f 74/2/3 72/2/3 71/2/3
f 75/1/3 73/1/3 72/1/3
f 75/2/3 72/2/3 74/2/3
f 76/1/3 73/1/3 75/1/3
f 77/1/3 73/1/3 76/1/3
f 78/1/3 75/1/3 74/1/3
f 78/1/3 76/1/3 75/1/3
f 79/4/3 77/4/3 76/4/3
f 79/1/3 76/1/3 78/1/3
f 80/1/3 78/1/3 74/1/3
f 80/2/3 79/2/3 78/2/3
f 81/4/3 77/4/3 79/4/3
f 81/2/3 79/2/3 80/2/3
f 82/1/3 73/1/3 77/1/3
f 82/4/3 77/4/3 81/4/3
f 83/1/3 73/1/3 82/1/3
f 84/4/3 82/4/3 81/4/3
f 84/2/3 83/2/3 82/2/3
f 85/2/3 83/2/3 84/2/3
f 86/1/3 81/1/3 80/1/3
f 86/1/3 80/1/3 74/1/3
f 87/1/3 81/1/3 86/1/3
f 88/2/3 87/2/3 86/2/3
f 89/1/3 81/1/3 87/1/3
f 89/2/3 87/2/3 88/2/3
f 90/1/3 89/1/3 88/1/3
f 91/1/3 81/1/3 89/1/3
f 91/1/3 89/1/3 90/1/3
f 92/2/3 91/2/3 90/2/3
f 93/1/3 81/1/3 91/1/3
f 93/2/3 91/2/3 92/2/3
f 94/1/3 85/1/3 84/1/3
f 94/4/3 84/4/3 81/4/3
f 95/1/3 85/1/3 94/1/3
f 96/1/3 81/1/3 93/1/3
f 96/1/3 93/1/3 92/1/3
f 97/4/3 94/4/3 81/4/3
f 97/1/3 81/1/3 96/1/3
f 98/2/3 95/2/3 94/2/3
f 98/4/3 94/4/3 97/4/3
f 99/2/3 95/2/3 98/2/3
f 100/2/3 97/2/3 96/2/3
f 100/1/3 96/1/3 92/1/3
f 101/4/3 98/4/3 97/4/3
f 101/2/3 97/2/3 100/2/3
f 102/1/3 101/1/3 100/1/3
f 102/4/3 98/4/3 101/4/3
f 103/1/3 99/1/3 98/1/3
f 103/4/3 98/4/3 102/4/3
f 104/1/3 102/1/3 100/1/3
f 104/1/3 100/1/3 92/1/3
f 104/1/3 103/1/3 102/1/3
f 105/1/3 99/1/3 103/1/3
f 105/1/3 103/1/3 104/1/3
f 108/4/3 107/4/3 106/4/3
f 109/4/3 107/4/3 108/4/3
f 112/4/3 111/4/3 110/4/3
f 113/4/3 111/4/3 112/4/3
f 114/4/4 115/4/4 116/4/4
f 116/4/4 115/4/4 117/4/4
f 118/4/4 119/4/4 120/4/4
f 120/4/4 119/4/4 121/4/4
f 122/1/4 123/1/4 124/1/4
f 124/1/4 123/1/4 125/1/4
f 122/1/4 124/1/4 126/1/4
f 124/2/4 125/2/4 127/2/4
f 126/1/4 124/1/4 127/1/4
f 127/2/4 125/2/4 128/2/4
f 125/1/4 123/1/4 129/1/4
f 128/2/4 125/2/4 129/2/4
f 127/2/4 128/2/4 130/2/4
f 122/1/4 126/1/4 130/1/4
f 126/2/4 127/2/4 130/2/4
f 128/1/4 129/1/4 131/1/4
f 130/2/4 128/2/4 131/2/4
f 122/1/4 130/1/4 132/1/4
f 130/1/4 131/1/4 132/1/4
f 131/1/4 129/1/4 133/1/4
f 132/1/4 131/1/4 133/1/4
f 129/1/4 123/1/4 134/1/4
f 133/1/4 129/1/4 134/1/4
f 134/1/4 123/1/4 135/1/4
f 132/2/4 133/2/4 136/2/4
f 133/1/4 134/1/4 137/1/4
f 136/2/4 133/2/4 137/2/4
f 137/1/4 134/1/4 138/1/4
f 138/1/4 134/1/4 139/1/4
f 134/2/4 135/2/4 140/2/4
f 139/1/4 134/1/4 140/1/4
f 135/1/4 123/1/4 141/1/4
f 140/2/4 135/2/4 141/2/4
f 122/1/4 132/1/4 142/1/4
f 142/1/4 132/1/4 143/1/4
f 132/2/4 136/2/4 144/2/4
f 143/1/4 132/1/4 144/1/4
f 136/1/4 137/1/4 145/1/4
f 144/2/4 136/2/4 145/2/4
f 137/1/4 138/1/4 145/1/4
f 142/2/4 143/2/4 146/2/4
f 122/1/4 142/1/4 146/1/4
f 143/1/4 144/1/4 147/1/4
f 146/2/4 143/2/4 147/2/4
f 144/1/4 145/1/4 147/1/4
f 145/1/4 138/1/4 148/1/4
f 147/1/4 145/1/4 148/1/4
f 146/1/4 147/1/4 148/1/4
f 138/2/4 139/2/4 148/2/4
f 139/1/4 140/1/4 149/1/4
f 148/2/4 139/2/4 149/2/4
f 140/1/4 141/1/4 149/1/4
f 146/1/4 148/1/4 150/1/4
f 148/1/4 149/1/4 150/1/4
f 150/1/4 149/1/4 151/1/4
f 146/1/4 150/1/4 152/1/4
f 150/2/4 151/2/4 152/2/4
f 151/1/4 149/1/4 153/1/4
f 152/2/4 151/2/4 153/2/4
f 152/1/4 153/1/4 154/1/4
f 153/1/4 149/1/4 154/1/4
f 149/1/4 141/1/4 155/1/4
f 154/1/4 149/1/4 155/1/4
f 152/1/4 154/1/4 156/1/4
f 146/1/4 152/1/4 156/1/4
f 156/1/4 154/1/4 157/1/4
f 157/1/4 154/1/4 158/1/4
f 154/2/4 155/2/4 159/2/4
f 158/1/4 154/1/4 159/1/4
f 155/1/4 141/1/4 160/1/4
f 159/2/4 155/2/4 160/2/4
f 158/2/4 159/2/4 161/2/4
f 157/1/4 158/1/4 161/1/4
f 159/1/4 160/1/4 162/1/4
f 161/2/4 159/2/4 162/2/4
f 146/1/4 156/1/4 163/1/4
f 156/2/4 157/2/4 163/2/4
f 157/1/4 161/1/4 164/1/4
f 163/2/4 157/2/4 164/2/4
f 161/1/4 162/1/4 164/1/4
f 122/1/4 146/1/4 165/1/4
f 146/1/4 163/1/4 165/1/4
f 163/1/4 164/1/4 165/1/4
f 160/1/4 141/1/4 166/1/4
f 165/1/4 164/1/4 166/1/4
f 141/1/4 123/1/4 166/1/4
f 162/1/4 160/1/4 166/1/4
f 164/1/4 162/1/4 166/1/4
f 174/2/5 168/2/5 167/2/5
f 175/1/5 169/1/5 168/1/5
f 175/2/5 168/2/5 174/2/5
f 176/2/5 170/2/5 169/2/5
f 176/1/5 169/1/5 175/1/5
f 177/1/5 171/1/5 170/1/5
f 177/2/5 170/2/5 176/2/5
f 178/2/5 172/2/5 171/2/5
f 178/1/5 171/1/5 177/1/5
f 179/1/5 173/1/5 172/1/5
f 179/2/5 172/2/5 178/2/5
f 180/1/5 173/1/5 179/1/5
f 181/3/5 178/3/5 177/3/5
f 181/1/5 175/1/5 174/1/5
f 181/3/5 180/3/5 179/3/5
f 181/3/5 179/3/5 178/3/5
f 181/3/5 177/3/5 176/3/5
f 181/3/5 176/3/5 175/3/5
f 182/1/5 173/1/5 180/1/5
f 182/3/5 180/3/5 181/3/5
f 183/1/5 181/1/5 174/1/5
f 183/1/5 182/1/5 181/1/5
f 184/1/5 173/1/5 182/1/5
f 184/1/5 182/1/5 183/1/5
f 185/1/6 186/1/6 191/1/6
f 186/2/6 187/2/6 191/2/6
f 187/1/6 188/1/6 192/1/6
f 191/2/6 187/2/6 192/2/6
f 188/2/6 189/2/6 193/2/6
f 192/1/6 188/1/6 193/1/6
f 189/1/6 190/1/6 194/1/6
f 193/2/6 189/2/6 194/2/6
f 192/1/6 193/1/6 195/1/6
f 191/1/6 192/1/6 195/1/6
f 193/1/6 194/1/6 195/1/6
f 185/1/6 191/1/6 195/1/6
f 195/1/6 194/1/6 196/1/6
f 196/1/6 194/1/6 197/1/6
f 194/1/6 190/1/6 198/1/6
f 197/1/6 194/1/6 198/1/6
f 185/1/6 195/1/6 199/1/6
f 196/1/6 197/1/6 200/1/6
f 200/1/6 197/1/6 201/1/6
f 198/1/6 190/1/6 202/1/6
f 185/1/6 199/1/6 203/1/6
f 201/1/6 202/1/6 203/1/6
f 200/1/6 201/1/6 203/1/6
f 199/1/6 200/1/6 203/1/6
f 202/1/6 190/1/6 204/1/6
f 203/1/6 202/1/6 204/1/6
f 205/4/6 206/4/6 209/4/6
f 209/4/6 206/4/6 210/4/6
f 207/4/6 208/4/6 211/4/6
f 211/4/6 208/4/6 212/4/6
