# MagicaVoxel @ Ephtracy

# group
o 

# material
mtllib flashlight.mtl
usemtl palette

# normals
vn -1 0 0
vn 1 0 0
vn 0 0 1
vn 0 0 -1
vn 0 -1 0
vn 0 1 0

# texcoords
vt 0.0175781 0.5
vt 0.970703 0.5
vt 0.982422 0.5
vt 0.994141 0.5

# verts
v -0.6 1.1 0.9
v -0.6 1.1 0.6
v -0.6 1.6 0.9
v -0.6 1.6 0.6
v -0.5 1 0.9
v -0.5 1 0.6
v -0.5 1.1 0.9
v -0.5 1.1 0.6
v -0.5 1.1 0.5
v -0.5 1.1 0.2
v -0.5 1.1 -1
v -0.5 1.1 -1.1
v -0.5 1.1 -1.2
v -0.5 1.6 0.9
v -0.5 1.6 0.6
v -0.5 1.6 0.5
v -0.5 1.6 0.2
v -0.5 1.6 -1
v -0.5 1.6 -1.1
v -0.5 1.6 -1.2
v -0.5 1.7 0.9
v -0.5 1.7 0.6
v -0.4 0.9 0.9
v -0.4 0.9 0.6
v -0.4 1 0.9
v -0.4 1 0.6
v -0.4 1 0.5
v -0.4 1 0.2
v -0.4 1 -1
v -0.4 1 -1.1
v -0.4 1 -1.2
v -0.4 1.1 0.6
v -0.4 1.1 0.5
v -0.4 1.1 0.2
v -0.4 1.1 -1
v -0.4 1.1 -1.1
v -0.4 1.1 -1.2
v -0.4 1.1 -1.3
v -0.4 1.6 0.6
v -0.4 1.6 0.5
v -0.4 1.6 0.2
v -0.4 1.6 -1
v -0.4 1.6 -1.1
v -0.4 1.6 -1.2
v -0.4 1.6 -1.3
v -0.4 1.7 0.9
v -0.4 1.7 0.6
v -0.4 1.7 0.5
v -0.4 1.7 0.2
v -0.4 1.7 -1
v -0.4 1.7 -1.1
v -0.4 1.7 -1.2
v -0.4 1.8 0.9
v -0.4 1.8 0.6
v -0.2 1.7 0.4
v -0.2 1.7 0.3
v -0.2 1.8 0.4
v -0.2 1.8 0.3
v 0.1 1 0.9
v 0.1 1 0.7
v 0.1 1.1 0.9
v 0.1 1.1 0.7
v 0.1 1.6 0.9
v 0.1 1.6 0.7
v 0.1 1.7 0.9
v 0.1 1.7 0.7
v 0.2 1.1 0.9
v 0.2 1.1 0.7
v 0.2 1.6 0.9
v 0.2 1.6 0.7
v -0.5 1.1 0.9
v -0.5 1.1 0.7
v -0.5 1.6 0.9
v -0.5 1.6 0.7
v -0.4 1 0.9
v -0.4 1 0.7
v -0.4 1.1 0.9
v -0.4 1.1 0.7
v -0.4 1.6 0.9
v -0.4 1.6 0.7
v -0.4 1.7 0.9
v -0.4 1.7 0.7
v -0.0999999 1.7 0.4
v -0.0999999 1.7 0.3
v -0.0999999 1.8 0.4
v -0.0999999 1.8 0.3
v 0.1 0.9 0.9
v 0.1 0.9 0.6
v 0.1 1 0.9
v 0.1 1 0.6
v 0.1 1 0.5
v 0.1 1 0.2
v 0.1 1 -1
v 0.1 1 -1.1
v 0.1 1 -1.2
v 0.1 1.1 0.6
v 0.1 1.1 0.5
v 0.1 1.1 0.2
v 0.1 1.1 -1
v 0.1 1.1 -1.1
v 0.1 1.1 -1.2
v 0.1 1.1 -1.3
v 0.1 1.6 0.6
v 0.1 1.6 0.5
v 0.1 1.6 0.2
v 0.1 1.6 -1
v 0.1 1.6 -1.1
v 0.1 1.6 -1.2
v 0.1 1.6 -1.3
v 0.1 1.7 0.9
v 0.1 1.7 0.6
v 0.1 1.7 0.5
v 0.1 1.7 0.2
v 0.1 1.7 -1
v 0.1 1.7 -1.1
v 0.1 1.7 -1.2
v 0.1 1.8 0.9
v 0.1 1.8 0.6
v 0.2 1 0.9
v 0.2 1 0.6
v 0.2 1.1 0.9
v 0.2 1.1 0.6
v 0.2 1.1 0.5
v 0.2 1.1 0.2
v 0.2 1.1 -1
v 0.2 1.1 -1.1
v 0.2 1.1 -1.2
v 0.2 1.6 0.9
v 0.2 1.6 0.6
v 0.2 1.6 0.5
v 0.2 1.6 0.2
v 0.2 1.6 -1
v 0.2 1.6 -1.1
v 0.2 1.6 -1.2
v 0.2 1.7 0.9
v 0.2 1.7 0.6
v 0.3 1.1 0.9
v 0.3 1.1 0.6
v 0.3 1.6 0.9
v 0.3 1.6 0.6
v -0.6 1.1 0.9
v -0.6 1.6 0.9
v -0.5 1 0.9
v -0.5 1.1 0.9
v -0.5 1.6 0.9
v -0.5 1.7 0.9
v -0.4 0.9 0.9
v -0.4 1 0.9
v -0.4 1.1 0.9
v -0.4 1.6 0.9
v -0.4 1.7 0.9
v -0.4 1.8 0.9
v 0.1 0.9 0.9
v 0.1 1 0.9
v 0.1 1.1 0.9
v 0.1 1.6 0.9
v 0.1 1.7 0.9
v 0.1 1.8 0.9
v 0.2 1 0.9
v 0.2 1.1 0.9
v 0.2 1.6 0.9
v 0.2 1.7 0.9
v 0.3 1.1 0.9
v 0.3 1.6 0.9
v -0.5 1.1 0.7
v -0.5 1.6 0.7
v -0.4 1 0.7
v -0.4 1.1 0.7
v -0.4 1.6 0.7
v -0.4 1.7 0.7
v 0.1 1 0.7
v 0.1 1.1 0.7
v 0.1 1.6 0.7
v 0.1 1.7 0.7
v 0.2 1.1 0.7
v 0.2 1.6 0.7
v -0.2 1.7 0.4
v -0.2 1.8 0.4
v -0.0999999 1.7 0.4
v -0.0999999 1.8 0.4
v -0.6 1.1 0.6
v -0.6 1.6 0.6
v -0.5 1 0.6
v -0.5 1.1 0.6
v -0.5 1.6 0.6
v -0.5 1.7 0.6
v -0.4 0.9 0.6
v -0.4 1 0.6
v -0.4 1.1 0.6
v -0.4 1.6 0.6
v -0.4 1.7 0.6
v -0.4 1.8 0.6
v 0.1 0.9 0.6
v 0.1 1 0.6
v 0.1 1.1 0.6
v 0.1 1.6 0.6
v 0.1 1.7 0.6
v 0.1 1.8 0.6
v 0.2 1 0.6
v 0.2 1.1 0.6
v 0.2 1.6 0.6
v 0.2 1.7 0.6
v 0.3 1.1 0.6
v 0.3 1.6 0.6
v -0.2 1.7 0.3
v -0.2 1.8 0.3
v -0.0999999 1.7 0.3
v -0.0999999 1.8 0.3
v -0.5 1.1 -1.2
v -0.5 1.6 -1.2
v -0.4 1 -1.2
v -0.4 1.1 -1.2
v -0.4 1.6 -1.2
v -0.4 1.7 -1.2
v 0.1 1 -1.2
v 0.1 1.1 -1.2
v 0.1 1.6 -1.2
v 0.1 1.7 -1.2
v 0.2 1.1 -1.2
v 0.2 1.6 -1.2
v -0.4 1.1 -1.3
v -0.4 1.6 -1.3
v 0.1 1.1 -1.3
v 0.1 1.6 -1.3
v -0.4 0.9 0.9
v 0.1 0.9 0.9
v -0.4 0.9 0.6
v 0.1 0.9 0.6
v -0.5 1 0.9
v -0.4 1 0.9
v 0.1 1 0.9
v 0.2 1 0.9
v -0.5 1 0.6
v -0.4 1 0.6
v 0.1 1 0.6
v 0.2 1 0.6
v -0.4 1 0.5
v 0.1 1 0.5
v -0.4 1 0.2
v 0.1 1 0.2
v -0.4 1 -1
v 0.1 1 -1
v -0.4 1 -1.1
v 0.1 1 -1.1
v -0.4 1 -1.2
v 0.1 1 -1.2
v -0.6 1.1 0.9
v -0.5 1.1 0.9
v 0.2 1.1 0.9
v 0.3 1.1 0.9
v -0.6 1.1 0.6
v -0.5 1.1 0.6
v -0.4 1.1 0.6
v 0.1 1.1 0.6
v 0.2 1.1 0.6
v 0.3 1.1 0.6
v -0.5 1.1 0.5
v -0.4 1.1 0.5
v 0.1 1.1 0.5
v 0.2 1.1 0.5
v -0.5 1.1 0.2
v -0.4 1.1 0.2
v 0.1 1.1 0.2
v 0.2 1.1 0.2
v -0.5 1.1 -1
v -0.4 1.1 -1
v 0.1 1.1 -1
v 0.2 1.1 -1
v -0.5 1.1 -1.1
v -0.4 1.1 -1.1
v 0.1 1.1 -1.1
v 0.2 1.1 -1.1
v -0.5 1.1 -1.2
v -0.4 1.1 -1.2
v 0.1 1.1 -1.2
v 0.2 1.1 -1.2
v -0.4 1.1 -1.3
v 0.1 1.1 -1.3
v -0.5 1.6 0.9
v -0.4 1.6 0.9
v 0.1 1.6 0.9
v 0.2 1.6 0.9
v -0.5 1.6 0.7
v -0.4 1.6 0.7
v 0.1 1.6 0.7
v 0.2 1.6 0.7
v -0.4 1.7 0.9
v 0.1 1.7 0.9
v -0.4 1.7 0.7
v 0.1 1.7 0.7
v -0.4 1 0.9
v 0.1 1 0.9
v -0.4 1 0.7
v 0.1 1 0.7
v -0.5 1.1 0.9
v -0.4 1.1 0.9
v 0.1 1.1 0.9
v 0.2 1.1 0.9
v -0.5 1.1 0.7
v -0.4 1.1 0.7
v 0.1 1.1 0.7
v 0.2 1.1 0.7
v -0.6 1.6 0.9
v -0.5 1.6 0.9
v 0.2 1.6 0.9
v 0.3 1.6 0.9
v -0.6 1.6 0.6
v -0.5 1.6 0.6
v -0.4 1.6 0.6
v 0.1 1.6 0.6
v 0.2 1.6 0.6
v 0.3 1.6 0.6
v -0.5 1.6 0.5
v -0.4 1.6 0.5
v 0.1 1.6 0.5
v 0.2 1.6 0.5
v -0.5 1.6 0.2
v -0.4 1.6 0.2
v 0.1 1.6 0.2
v 0.2 1.6 0.2
v -0.5 1.6 -1
v -0.4 1.6 -1
v 0.1 1.6 -1
v 0.2 1.6 -1
v -0.5 1.6 -1.1
v -0.4 1.6 -1.1
v 0.1 1.6 -1.1
v 0.2 1.6 -1.1
v -0.5 1.6 -1.2
v -0.4 1.6 -1.2
v 0.1 1.6 -1.2
v 0.2 1.6 -1.2
v -0.4 1.6 -1.3
v 0.1 1.6 -1.3
v -0.5 1.7 0.9
v -0.4 1.7 0.9
v 0.1 1.7 0.9
v 0.2 1.7 0.9
v -0.5 1.7 0.6
v -0.4 1.7 0.6
v 0.1 1.7 0.6
v 0.2 1.7 0.6
v -0.4 1.7 0.5
v 0.1 1.7 0.5
v -0.2 1.7 0.4
v -0.0999999 1.7 0.4
v -0.2 1.7 0.3
v -0.0999999 1.7 0.3
v -0.4 1.7 0.2
v 0.1 1.7 0.2
v -0.4 1.7 -1
v 0.1 1.7 -1
v -0.4 1.7 -1.1
v 0.1 1.7 -1.1
v -0.4 1.7 -1.2
v 0.1 1.7 -1.2
v -0.4 1.8 0.9
v 0.1 1.8 0.9
v -0.4 1.8 0.6
v 0.1 1.8 0.6
v -0.2 1.8 0.4
v -0.0999999 1.8 0.4
v -0.2 1.8 0.3
v -0.0999999 1.8 0.3

# faces
f 3/4/1 2/4/1 1/4/1
f 4/4/1 2/4/1 3/4/1
f 7/4/1 6/4/1 5/4/1
f 8/4/1 6/4/1 7/4/1
f 15/4/1 9/4/1 8/4/1
f 16/3/1 10/3/1 9/3/1
f 16/4/1 9/4/1 15/4/1
f 17/4/1 11/4/1 10/4/1
f 17/3/1 10/3/1 16/3/1
f 18/3/1 12/3/1 11/3/1
f 18/4/1 11/4/1 17/4/1
f 19/4/1 13/4/1 12/4/1
f 19/3/1 12/3/1 18/3/1
f 20/4/1 13/4/1 19/4/1
f 21/4/1 15/4/1 14/4/1
f 22/4/1 15/4/1 21/4/1
f 25/4/1 24/4/1 23/4/1
f 26/4/1 24/4/1 25/4/1
f 32/4/1 27/4/1 26/4/1
f 33/3/1 28/3/1 27/3/1
f 33/4/1 27/4/1 32/4/1
f 34/4/1 29/4/1 28/4/1
f 34/3/1 28/3/1 33/3/1
f 35/3/1 30/3/1 29/3/1
f 35/4/1 29/4/1 34/4/1
f 36/4/1 31/4/1 30/4/1
f 36/3/1 30/3/1 35/3/1
f 37/4/1 31/4/1 36/4/1
f 44/4/1 38/4/1 37/4/1
f 45/4/1 38/4/1 44/4/1
f 47/4/1 40/4/1 39/4/1
f 48/3/1 41/3/1 40/3/1
f 48/4/1 40/4/1 47/4/1
f 49/4/1 42/4/1 41/4/1
f 49/3/1 41/3/1 48/3/1
f 50/3/1 43/3/1 42/3/1
f 50/4/1 42/4/1 49/4/1
f 51/4/1 44/4/1 43/4/1
f 51/3/1 43/3/1 50/3/1
f 52/4/1 44/4/1 51/4/1
f 53/4/1 47/4/1 46/4/1
f 54/4/1 47/4/1 53/4/1
f 57/2/1 56/2/1 55/2/1
f 58/2/1 56/2/1 57/2/1
f 61/4/1 60/4/1 59/4/1
f 62/4/1 60/4/1 61/4/1
f 65/4/1 64/4/1 63/4/1
f 66/4/1 64/4/1 65/4/1
f 69/4/1 68/4/1 67/4/1
f 70/4/1 68/4/1 69/4/1
f 71/4/2 72/4/2 73/4/2
f 73/4/2 72/4/2 74/4/2
f 75/4/2 76/4/2 77/4/2
f 77/4/2 76/4/2 78/4/2
f 79/4/2 80/4/2 81/4/2
f 81/4/2 80/4/2 82/4/2
f 83/2/2 84/2/2 85/2/2
f 85/2/2 84/2/2 86/2/2
f 87/4/2 88/4/2 89/4/2
f 89/4/2 88/4/2 90/4/2
f 90/4/2 91/4/2 96/4/2
f 91/3/2 92/3/2 97/3/2
f 96/4/2 91/4/2 97/4/2
f 92/4/2 93/4/2 98/4/2
f 97/3/2 92/3/2 98/3/2
f 93/3/2 94/3/2 99/3/2
f 98/4/2 93/4/2 99/4/2
f 94/4/2 95/4/2 100/4/2
f 99/3/2 94/3/2 100/3/2
f 100/4/2 95/4/2 101/4/2
f 101/4/2 102/4/2 108/4/2
f 108/4/2 102/4/2 109/4/2
f 103/4/2 104/4/2 111/4/2
f 104/3/2 105/3/2 112/3/2
f 111/4/2 104/4/2 112/4/2
f 105/4/2 106/4/2 113/4/2
f 112/3/2 105/3/2 113/3/2
f 106/3/2 107/3/2 114/3/2
f 113/4/2 106/4/2 114/4/2
f 107/4/2 108/4/2 115/4/2
f 114/3/2 107/3/2 115/3/2
f 115/4/2 108/4/2 116/4/2
f 110/4/2 111/4/2 117/4/2
f 117/4/2 111/4/2 118/4/2
f 119/4/2 120/4/2 121/4/2
f 121/4/2 120/4/2 122/4/2
f 122/4/2 123/4/2 129/4/2
f 123/3/2 124/3/2 130/3/2
f 129/4/2 123/4/2 130/4/2
f 124/4/2 125/4/2 131/4/2
f 130/3/2 124/3/2 131/3/2
f 125/3/2 126/3/2 132/3/2
f 131/4/2 125/4/2 132/4/2
f 126/4/2 127/4/2 133/4/2
f 132/3/2 126/3/2 133/3/2
f 133/4/2 127/4/2 134/4/2
f 128/4/2 129/4/2 135/4/2
f 135/4/2 129/4/2 136/4/2
f 137/4/2 138/4/2 139/4/2
f 139/4/2 138/4/2 140/4/2
f 144/4/3 142/4/3 141/4/3
f 145/4/3 142/4/3 144/4/3
f 148/4/3 144/4/3 143/4/3
f 149/4/3 144/4/3 148/4/3
f 150/4/3 146/4/3 145/4/3
f 151/4/3 146/4/3 150/4/3
f 153/4/3 148/4/3 147/4/3
f 154/4/3 148/4/3 153/4/3
f 157/4/3 152/4/3 151/4/3
f 158/4/3 152/4/3 157/4/3
f 159/4/3 155/4/3 154/4/3
f 160/4/3 155/4/3 159/4/3
f 161/4/3 157/4/3 156/4/3
f 162/4/3 157/4/3 161/4/3
f 163/4/3 161/4/3 160/4/3
f 164/4/3 161/4/3 163/4/3
f 168/1/3 166/1/3 165/1/3
f 169/1/3 166/1/3 168/1/3
f 171/1/3 168/1/3 167/1/3
f 171/1/3 170/1/3 169/1/3
f 171/1/3 169/1/3 168/1/3
f 172/1/3 170/1/3 171/1/3
f 173/1/3 170/1/3 172/1/3
f 174/1/3 170/1/3 173/1/3
f 175/1/3 173/1/3 172/1/3
f 176/1/3 173/1/3 175/1/3
f 179/2/3 178/2/3 177/2/3
f 180/2/3 178/2/3 179/2/3
f 181/4/4 182/4/4 184/4/4
f 184/4/4 182/4/4 185/4/4
f 183/4/4 184/4/4 188/4/4
f 188/4/4 184/4/4 189/4/4
f 185/4/4 186/4/4 190/4/4
f 190/4/4 186/4/4 191/4/4
f 187/4/4 188/4/4 193/4/4
f 193/4/4 188/4/4 194/4/4
f 191/4/4 192/4/4 197/4/4
f 197/4/4 192/4/4 198/4/4
f 194/4/4 195/4/4 199/4/4
f 199/4/4 195/4/4 200/4/4
f 196/4/4 197/4/4 201/4/4
f 201/4/4 197/4/4 202/4/4
f 200/4/4 201/4/4 203/4/4
f 203/4/4 201/4/4 204/4/4
f 205/2/4 206/2/4 207/2/4
f 207/2/4 206/2/4 208/2/4
f 209/4/4 210/4/4 212/4/4
f 212/4/4 210/4/4 213/4/4
f 211/4/4 212/4/4 215/4/4
f 215/4/4 212/4/4 216/4/4
f 213/4/4 214/4/4 217/4/4
f 217/4/4 214/4/4 218/4/4
f 216/4/4 217/4/4 219/4/4
f 219/4/4 217/4/4 220/4/4
f 221/4/4 222/4/4 223/4/4
f 223/4/4 222/4/4 224/4/4
f 227/4/5 226/4/5 225/4/5
f 228/4/5 226/4/5 227/4/5
f 233/4/5 230/4/5 229/4/5
f 234/4/5 230/4/5 233/4/5
f 235/4/5 232/4/5 231/4/5
f 236/4/5 232/4/5 235/4/5
f 237/4/5 235/4/5 234/4/5
f 238/4/5 235/4/5 237/4/5
f 239/3/5 238/3/5 237/3/5
f 240/3/5 238/3/5 239/3/5
f 241/4/5 240/4/5 239/4/5
f 242/4/5 240/4/5 241/4/5
f 243/3/5 242/3/5 241/3/5
f 244/3/5 242/3/5 243/3/5
f 245/4/5 244/4/5 243/4/5
f 246/4/5 244/4/5 245/4/5
f 251/4/5 248/4/5 247/4/5
f 252/4/5 248/4/5 251/4/5
f 255/4/5 250/4/5 249/4/5
f 256/4/5 250/4/5 255/4/5
f 257/4/5 253/4/5 252/4/5
f 258/4/5 253/4/5 257/4/5
f 259/4/5 255/4/5 254/4/5
f 260/4/5 255/4/5 259/4/5
f 261/3/5 258/3/5 257/3/5
f 262/3/5 258/3/5 261/3/5
f 263/3/5 260/3/5 259/3/5
f 264/3/5 260/3/5 263/3/5
f 265/4/5 262/4/5 261/4/5
f 266/4/5 262/4/5 265/4/5
f 267/4/5 264/4/5 263/4/5
f 268/4/5 264/4/5 267/4/5
f 269/3/5 266/3/5 265/3/5
f 270/3/5 266/3/5 269/3/5
f 271/3/5 268/3/5 267/3/5
f 272/3/5 268/3/5 271/3/5
f 273/4/5 270/4/5 269/4/5
f 274/4/5 270/4/5 273/4/5
f 275/4/5 272/4/5 271/4/5
f 276/4/5 272/4/5 275/4/5
f 277/4/5 275/4/5 274/4/5
f 278/4/5 275/4/5 277/4/5
f 283/4/5 280/4/5 279/4/5
f 284/4/5 280/4/5 283/4/5
f 285/4/5 282/4/5 281/4/5
f 286/4/5 282/4/5 285/4/5
f 289/4/5 288/4/5 287/4/5
f 290/4/5 288/4/5 289/4/5
f 291/4/6 292/4/6 293/4/6
f 293/4/6 292/4/6 294/4/6
f 295/4/6 296/4/6 299/4/6
f 299/4/6 296/4/6 300/4/6
f 297/4/6 298/4/6 301/4/6
f 301/4/6 298/4/6 302/4/6
f 303/4/6 304/4/6 307/4/6
f 307/4/6 304/4/6 308/4/6
f 305/4/6 306/4/6 311/4/6
f 311/4/6 306/4/6 312/4/6
f 308/4/6 309/4/6 313/4/6
f 313/4/6 309/4/6 314/4/6
f 310/4/6 311/4/6 315/4/6
f 315/4/6 311/4/6 316/4/6
f 313/3/6 314/3/6 317/3/6
f 317/3/6 314/3/6 318/3/6
f 315/3/6 316/3/6 319/3/6
f 319/3/6 316/3/6 320/3/6
f 317/4/6 318/4/6 321/4/6
f 321/4/6 318/4/6 322/4/6
f 319/4/6 320/4/6 323/4/6
f 323/4/6 320/4/6 324/4/6
f 321/3/6 322/3/6 325/3/6
f 325/3/6 322/3/6 326/3/6
f 323/3/6 324/3/6 327/3/6
f 327/3/6 324/3/6 328/3/6
f 325/4/6 326/4/6 329/4/6
f 329/4/6 326/4/6 330/4/6
f 327/4/6 328/4/6 331/4/6
f 331/4/6 328/4/6 332/4/6
f 330/4/6 331/4/6 333/4/6
f 333/4/6 331/4/6 334/4/6
f 335/4/6 336/4/6 339/4/6
f 339/4/6 336/4/6 340/4/6
f 337/4/6 338/4/6 341/4/6
f 341/4/6 338/4/6 342/4/6
f 340/4/6 341/4/6 343/4/6
f 343/4/6 341/4/6 344/4/6
f 343/3/6 344/3/6 345/3/6
f 345/3/6 344/3/6 346/3/6
f 343/3/6 345/3/6 347/3/6
f 346/3/6 344/3/6 348/3/6
f 343/3/6 347/3/6 349/3/6
f 347/3/6 348/3/6 349/3/6
f 348/3/6 344/3/6 350/3/6
f 349/3/6 348/3/6 350/3/6
f 349/4/6 350/4/6 351/4/6
f 351/4/6 350/4/6 352/4/6
f 351/3/6 352/3/6 353/3/6
f 353/3/6 352/3/6 354/3/6
f 353/4/6 354/4/6 355/4/6
f 355/4/6 354/4/6 356/4/6
f 357/4/6 358/4/6 359/4/6
f 359/4/6 358/4/6 360/4/6
f 361/2/6 362/2/6 363/2/6
f 363/2/6 362/2/6 364/2/6
