# MagicaVoxel @ Ephtracy

# group
o 

# material
mtllib part_of_roofroof.mtl
usemtl palette

# normals
vn -1 0 0
vn 1 0 0
vn 0 0 1
vn 0 0 -1
vn 0 -1 0
vn 0 1 0

# texcoords
vt 0.341797 0.5
vt 0.369141 0.5
vt 0.373047 0.5

# verts
v -2 0 0.9
v -2 0 0.6
v -2 0 -0.5
v -2 0 -0.8
v -2 0.1 0.9
v -2 0.1 0.6
v -2 0.1 0.3
v -2 0.1 0.1
v -2 0.1 -0.5
v -2 0.1 -0.8
v -2 0.2 0.9
v -2 0.2 0.3
v -2 0.2 0.1
v -2 0.2 -0.8
v 2 0 0.9
v 2 0 0.6
v 2 0 -0.5
v 2 0 -0.8
v 2 0.1 0.9
v 2 0.1 0.6
v 2 0.1 -0.5
v 2 0.1 -0.8
v 2 0.2 0.9
v 2 0.2 -0.8
v -2 0 0.9
v -2 0.1 0.9
v -2 0.2 0.9
v 2 0 0.9
v 2 0.1 0.9
v 2 0.2 0.9
v -2 0 -0.5
v -2 0.1 -0.5
v 2 0 -0.5
v 2 0.1 -0.5
v -2 0 0.6
v -2 0.1 0.6
v 2 0 0.6
v 2 0.1 0.6
v -2 0 -0.8
v -2 0.1 -0.8
v -2 0.2 -0.8
v 2 0 -0.8
v 2 0.1 -0.8
v 2 0.2 -0.8
v -2 0 0.9
v 2 0 0.9
v -2 0 0.6
v 2 0 0.6
v -2 0 -0.5
v 2 0 -0.5
v -2 0 -0.8
v 2 0 -0.8
v -2 0.1 0.6
v 2 0.1 0.6
v -2 0.1 0.3
v -1.9 0.1 0.3
v -1.3 0.1 0.3
v -1 0.1 0.3
v -1.9 0.1 0.2
v -1.3 0.1 0.2
v -1.1 0.1 0.2
v -1 0.1 0.2
v -0.8 0.1 0.2
v 0.4 0.1 0.2
v 1.1 0.1 0.2
v -2 0.1 0.1
v -1.3 0.1 0.1
v -1.1 0.1 0.1
v -0.9 0.1 0.1
v -0.8 0.1 0.1
v -0.7 0.1 0.1
v 0.4 0.1 0.1
v 1 0.1 0.1
v 1.1 0.1 0.1
v 1.3 0.1 0.1
v -0.9 0.1 0
v -0.8 0.1 0
v -0.7 0.1 0
v -0.3 0.1 0
v 1 0.1 0
v 1.3 0.1 0
v -0.8 0.1 -0.1
v -0.3 0.1 -0.1
v -2 0.1 -0.5
v 2 0.1 -0.5
v -2 0.2 0.9
v 2 0.2 0.9
v -2 0.2 0.3
v -1.9 0.2 0.3
v -1.3 0.2 0.3
v -1 0.2 0.3
v -1.9 0.2 0.2
v -1.3 0.2 0.2
v -1.1 0.2 0.2
v -1 0.2 0.2
v -0.8 0.2 0.2
v 0.4 0.2 0.2
v 1.1 0.2 0.2
v -2 0.2 0.1
v -1.3 0.2 0.1
v -1.1 0.2 0.1
v -0.9 0.2 0.1
v -0.8 0.2 0.1
v -0.7 0.2 0.1
v 0.4 0.2 0.1
v 1 0.2 0.1
v 1.1 0.2 0.1
v 1.3 0.2 0.1
v -0.9 0.2 0
v -0.8 0.2 0
v -0.7 0.2 0
v -0.3 0.2 0
v 1 0.2 0
v 1.3 0.2 0
v -0.8 0.2 -0.1
v -0.3 0.2 -0.1
v -2 0.2 -0.8
v 2 0.2 -0.8

# faces
f 5/1/1 2/1/1 1/1/1
f 6/1/1 2/1/1 5/1/1
f 9/1/1 4/1/1 3/1/1
f 10/1/1 4/1/1 9/1/1
f 11/3/1 6/3/1 5/3/1
f 11/3/1 7/3/1 6/3/1
f 12/2/1 8/2/1 7/2/1
f 12/3/1 7/3/1 11/3/1
f 13/3/1 10/3/1 9/3/1
f 13/2/1 8/2/1 12/2/1
f 13/3/1 9/3/1 8/3/1
f 14/3/1 10/3/1 13/3/1
f 15/1/2 16/1/2 19/1/2
f 19/1/2 16/1/2 20/1/2
f 17/1/2 18/1/2 21/1/2
f 21/1/2 18/1/2 22/1/2
f 19/3/2 20/3/2 23/3/2
f 20/3/2 21/3/2 23/3/2
f 21/3/2 22/3/2 23/3/2
f 23/3/2 22/3/2 24/3/2
f 28/1/3 26/1/3 25/1/3
f 29/3/3 27/3/3 26/3/3
f 29/1/3 26/1/3 28/1/3
f 30/3/3 27/3/3 29/3/3
f 33/1/3 32/1/3 31/1/3
f 34/1/3 32/1/3 33/1/3
f 35/1/4 36/1/4 37/1/4
f 37/1/4 36/1/4 38/1/4
f 39/1/4 40/1/4 42/1/4
f 40/3/4 41/3/4 43/3/4
f 42/1/4 40/1/4 43/1/4
f 43/3/4 41/3/4 44/3/4
f 47/1/5 46/1/5 45/1/5
f 48/1/5 46/1/5 47/1/5
f 51/1/5 50/1/5 49/1/5
f 52/1/5 50/1/5 51/1/5
f 55/3/5 54/3/5 53/3/5
f 56/3/5 54/3/5 55/3/5
f 57/3/5 54/3/5 56/3/5
f 58/3/5 54/3/5 57/3/5
f 59/2/5 56/2/5 55/2/5
f 59/3/5 57/3/5 56/3/5
f 60/2/5 58/2/5 57/2/5
f 60/3/5 57/3/5 59/3/5
f 61/2/5 58/2/5 60/2/5
f 62/3/5 54/3/5 58/3/5
f 62/2/5 58/2/5 61/2/5
f 63/3/5 54/3/5 62/3/5
f 64/3/5 54/3/5 63/3/5
f 65/3/5 54/3/5 64/3/5
f 66/2/5 59/2/5 55/2/5
f 66/2/5 60/2/5 59/2/5
f 67/3/5 61/3/5 60/3/5
f 67/2/5 60/2/5 66/2/5
f 68/2/5 62/2/5 61/2/5
f 68/3/5 61/3/5 67/3/5
f 68/2/5 63/2/5 62/2/5
f 69/2/5 63/2/5 68/2/5
f 70/3/5 64/3/5 63/3/5
f 70/2/5 63/2/5 69/2/5
f 71/3/5 64/3/5 70/3/5
f 72/2/5 65/2/5 64/2/5
f 72/3/5 64/3/5 71/3/5
f 73/2/5 65/2/5 72/2/5
f 74/3/5 54/3/5 65/3/5
f 74/2/5 65/2/5 73/2/5
f 75/3/5 54/3/5 74/3/5
f 76/2/5 71/2/5 70/2/5
f 76/3/5 67/3/5 66/3/5
f 76/3/5 69/3/5 68/3/5
f 76/3/5 68/3/5 67/3/5
f 76/2/5 70/2/5 69/2/5
f 77/2/5 71/2/5 76/2/5
f 78/3/5 73/3/5 72/3/5
f 78/2/5 71/2/5 77/2/5
f 78/3/5 72/3/5 71/3/5
f 79/3/5 73/3/5 78/3/5
f 80/2/5 75/2/5 74/2/5
f 80/3/5 73/3/5 79/3/5
f 80/2/5 74/2/5 73/2/5
f 81/3/5 54/3/5 75/3/5
f 81/2/5 75/2/5 80/2/5
f 82/3/5 77/3/5 76/3/5
f 82/2/5 79/2/5 78/2/5
f 82/2/5 78/2/5 77/2/5
f 83/3/5 80/3/5 79/3/5
f 83/2/5 79/2/5 82/2/5
f 83/3/5 81/3/5 80/3/5
f 84/3/5 82/3/5 76/3/5
f 84/3/5 76/3/5 66/3/5
f 84/3/5 83/3/5 82/3/5
f 85/3/5 54/3/5 81/3/5
f 85/3/5 83/3/5 84/3/5
f 85/3/5 81/3/5 83/3/5
f 86/3/6 87/3/6 88/3/6
f 88/3/6 87/3/6 89/3/6
f 89/3/6 87/3/6 90/3/6
f 90/3/6 87/3/6 91/3/6
f 88/2/6 89/2/6 92/2/6
f 89/3/6 90/3/6 92/3/6
f 90/2/6 91/2/6 93/2/6
f 92/3/6 90/3/6 93/3/6
f 93/2/6 91/2/6 94/2/6
f 91/3/6 87/3/6 95/3/6
f 94/2/6 91/2/6 95/2/6
f 95/3/6 87/3/6 96/3/6
f 96/3/6 87/3/6 97/3/6
f 97/3/6 87/3/6 98/3/6
f 88/2/6 92/2/6 99/2/6
f 92/2/6 93/2/6 99/2/6
f 93/3/6 94/3/6 100/3/6
f 99/2/6 93/2/6 100/2/6
f 94/2/6 95/2/6 101/2/6
f 100/3/6 94/3/6 101/3/6
f 95/2/6 96/2/6 101/2/6
f 101/2/6 96/2/6 102/2/6
f 96/3/6 97/3/6 103/3/6
f 102/2/6 96/2/6 103/2/6
f 103/3/6 97/3/6 104/3/6
f 97/2/6 98/2/6 105/2/6
f 104/3/6 97/3/6 105/3/6
f 105/2/6 98/2/6 106/2/6
f 98/3/6 87/3/6 107/3/6
f 106/2/6 98/2/6 107/2/6
f 107/3/6 87/3/6 108/3/6
f 103/2/6 104/2/6 109/2/6
f 99/3/6 100/3/6 109/3/6
f 101/3/6 102/3/6 109/3/6
f 100/3/6 101/3/6 109/3/6
f 102/2/6 103/2/6 109/2/6
f 109/2/6 104/2/6 110/2/6
f 105/3/6 106/3/6 111/3/6
f 110/2/6 104/2/6 111/2/6
f 104/3/6 105/3/6 111/3/6
f 111/3/6 106/3/6 112/3/6
f 107/2/6 108/2/6 113/2/6
f 112/3/6 106/3/6 113/3/6
f 106/2/6 107/2/6 113/2/6
f 108/3/6 87/3/6 114/3/6
f 113/2/6 108/2/6 114/2/6
f 109/3/6 110/3/6 115/3/6
f 111/2/6 112/2/6 115/2/6
f 110/2/6 111/2/6 115/2/6
f 112/3/6 113/3/6 116/3/6
f 115/2/6 112/2/6 116/2/6
f 113/3/6 114/3/6 116/3/6
f 109/3/6 115/3/6 117/3/6
f 99/3/6 109/3/6 117/3/6
f 115/3/6 116/3/6 117/3/6
f 114/3/6 87/3/6 118/3/6
f 117/3/6 116/3/6 118/3/6
f 116/3/6 114/3/6 118/3/6
