# MagicaVoxel @ Ephtracy

# group
o 

# material
mtllib roof.mtl
usemtl palette

# normals
vn -1 0 0
vn 1 0 0
vn 0 0 1
vn 0 0 -1
vn 0 -1 0
vn 0 1 0

# texcoords
vt 0.341797 0.5
vt 0.369141 0.5
vt 0.373047 0.5

# verts
v -2 0 1.8
v -2 0 1.5
v -2 0 0.4
v -2 0 0.1
v -2 0 -1
v -2 0 -1.3
v -2 0.1 1.8
v -2 0.1 1.5
v -2 0.1 1.2
v -2 0.1 1
v -2 0.1 0.4
v -2 0.1 0.1
v -2 0.1 -1
v -2 0.1 -1.3
v -2 0.1 -1.8
v -2 0.2 1.8
v -2 0.2 1.2
v -2 0.2 1
v -2 0.2 -1.8
v 2 0 1.8
v 2 0 1.5
v 2 0 0.4
v 2 0 0.1
v 2 0 -1
v 2 0 -1.3
v 2 0.1 1.8
v 2 0.1 1.5
v 2 0.1 0.4
v 2 0.1 0.1
v 2 0.1 -1
v 2 0.1 -1.3
v 2 0.1 -1.8
v 2 0.2 1.8
v 2 0.2 -1.8
v -2 0 1.8
v -2 0.1 1.8
v -2 0.2 1.8
v 2 0 1.8
v 2 0.1 1.8
v 2 0.2 1.8
v -2 0 0.4
v -2 0.1 0.4
v 2 0 0.4
v 2 0.1 0.4
v -2 0 -1
v -2 0.1 -1
v 2 0 -1
v 2 0.1 -1
v -2 0 1.5
v -2 0.1 1.5
v 2 0 1.5
v 2 0.1 1.5
v -2 0 0.1
v -2 0.1 0.1
v 2 0 0.1
v 2 0.1 0.1
v -2 0 -1.3
v -2 0.1 -1.3
v 2 0 -1.3
v 2 0.1 -1.3
v -2 0.1 -1.8
v -2 0.2 -1.8
v 0.4 0.1 -1.8
v 0.4 0.2 -1.8
v 0.5 0.1 -1.8
v 0.5 0.2 -1.8
v 2 0.1 -1.8
v 2 0.2 -1.8
v -2 0 1.8
v 2 0 1.8
v -2 0 1.5
v 2 0 1.5
v -2 0 0.4
v 2 0 0.4
v -2 0 0.1
v 2 0 0.1
v -2 0 -1
v 2 0 -1
v -2 0 -1.3
v 2 0 -1.3
v -2 0.1 1.5
v 2 0.1 1.5
v -2 0.1 1.2
v -1.9 0.1 1.2
v -1.3 0.1 1.2
v -1 0.1 1.2
v -1.9 0.1 1.1
v -1.3 0.1 1.1
v -1.1 0.1 1.1
v -1 0.1 1.1
v -0.8 0.1 1.1
v 0.4 0.1 1.1
v 1.1 0.1 1.1
v -2 0.1 1
v -1.3 0.1 1
v -1.1 0.1 1
v -0.9 0.1 1
v -0.8 0.1 1
v -0.7 0.1 1
v 0.4 0.1 1
v 1 0.1 1
v 1.1 0.1 1
v 1.3 0.1 1
v -0.9 0.1 0.9
v -0.8 0.1 0.9
v -0.7 0.1 0.9
v -0.3 0.1 0.9
v 1 0.1 0.9
v 1.3 0.1 0.9
v -0.8 0.1 0.8
v -0.3 0.1 0.8
v -2 0.1 0.4
v 2 0.1 0.4
v -2 0.1 0.1
v 2 0.1 0.1
v 0.6 0.1 -0.3
v 1.1 0.1 -0.3
v -1.2 0.1 -0.4
v -1 0.1 -0.4
v 0.6 0.1 -0.4
v 1 0.1 -0.4
v 1.1 0.1 -0.4
v 1.3 0.1 -0.4
v -1.2 0.1 -0.5
v -1.1 0.1 -0.5
v -1 0.1 -0.5
v -0.9 0.1 -0.5
v -0.5 0.1 -0.5
v -0.0999999 0.1 -0.5
v 1 0.1 -0.5
v 1.2 0.1 -0.5
v 1.3 0.1 -0.5
v 1.5 0.1 -0.5
v -1.1 0.1 -0.6
v -1 0.1 -0.6
v -0.9 0.1 -0.6
v -0.8 0.1 -0.6
v -0.7 0.1 -0.6
v -0.5 0.1 -0.6
v -0.4 0.1 -0.6
v -0.2 0.1 -0.6
v -0.0999999 0.1 -0.6
v 2.38419e-07 0.1 -0.6
v 1.2 0.1 -0.6
v 1.5 0.1 -0.6
v -1 0.1 -0.7
v -0.9 0.1 -0.7
v -0.8 0.1 -0.7
v -0.7 0.1 -0.7
v -0.6 0.1 -0.7
v -0.4 0.1 -0.7
v -0.2 0.1 -0.7
v 2.38419e-07 0.1 -0.7
v -0.9 0.1 -0.8
v -0.6 0.1 -0.8
v -2 0.1 -1
v 2 0.1 -1
v -2 0.1 -1.3
v 2 0.1 -1.3
v 0.4 0.1 -1.5
v 1 0.1 -1.5
v 0.5 0.1 -1.6
v 0.9 0.1 -1.6
v 1 0.1 -1.6
v 1.1 0.1 -1.6
v 0.9 0.1 -1.7
v 1.1 0.1 -1.7
v -2 0.1 -1.8
v 0.4 0.1 -1.8
v 0.5 0.1 -1.8
v 2 0.1 -1.8
v -2 0.2 1.8
v 2 0.2 1.8
v -2 0.2 1.2
v -1.9 0.2 1.2
v -1.3 0.2 1.2
v -1 0.2 1.2
v -1.9 0.2 1.1
v -1.3 0.2 1.1
v -1.1 0.2 1.1
v -1 0.2 1.1
v -0.8 0.2 1.1
v 0.4 0.2 1.1
v 1.1 0.2 1.1
v -2 0.2 1
v -1.3 0.2 1
v -1.1 0.2 1
v -0.9 0.2 1
v -0.8 0.2 1
v -0.7 0.2 1
v 0.4 0.2 1
v 1 0.2 1
v 1.1 0.2 1
v 1.3 0.2 1
v -0.9 0.2 0.9
v -0.8 0.2 0.9
v -0.7 0.2 0.9
v -0.3 0.2 0.9
v 1 0.2 0.9
v 1.3 0.2 0.9
v -0.8 0.2 0.8
v -0.3 0.2 0.8
v 0.6 0.2 -0.3
v 1.1 0.2 -0.3
v -1.2 0.2 -0.4
v -1 0.2 -0.4
v 0.6 0.2 -0.4
v 1 0.2 -0.4
v 1.1 0.2 -0.4
v 1.3 0.2 -0.4
v -1.2 0.2 -0.5
v -1.1 0.2 -0.5
v -1 0.2 -0.5
v -0.9 0.2 -0.5
v -0.5 0.2 -0.5
v -0.0999999 0.2 -0.5
v 1 0.2 -0.5
v 1.2 0.2 -0.5
v 1.3 0.2 -0.5
v 1.5 0.2 -0.5
v -1.1 0.2 -0.6
v -1 0.2 -0.6
v -0.9 0.2 -0.6
v -0.8 0.2 -0.6
v -0.7 0.2 -0.6
v -0.5 0.2 -0.6
v -0.4 0.2 -0.6
v -0.2 0.2 -0.6
v -0.0999999 0.2 -0.6
v 2.38419e-07 0.2 -0.6
v 1.2 0.2 -0.6
v 1.5 0.2 -0.6
v -1 0.2 -0.7
v -0.9 0.2 -0.7
v -0.8 0.2 -0.7
v -0.7 0.2 -0.7
v -0.6 0.2 -0.7
v -0.4 0.2 -0.7
v -0.2 0.2 -0.7
v 2.38419e-07 0.2 -0.7
v -0.9 0.2 -0.8
v -0.6 0.2 -0.8
v 0.4 0.2 -1.5
v 1 0.2 -1.5
v 0.5 0.2 -1.6
v 0.9 0.2 -1.6
v 1 0.2 -1.6
v 1.1 0.2 -1.6
v 0.9 0.2 -1.7
v 1.1 0.2 -1.7
v -2 0.2 -1.8
v 0.4 0.2 -1.8
v 0.5 0.2 -1.8
v 2 0.2 -1.8

# faces
f 7/1/1 2/1/1 1/1/1
f 8/1/1 2/1/1 7/1/1
f 11/1/1 4/1/1 3/1/1
f 12/1/1 4/1/1 11/1/1
f 13/1/1 6/1/1 5/1/1
f 14/1/1 6/1/1 13/1/1
f 16/3/1 8/3/1 7/3/1
f 16/3/1 9/3/1 8/3/1
f 17/2/1 10/2/1 9/2/1
f 17/3/1 9/3/1 16/3/1
f 18/3/1 12/3/1 11/3/1
f 18/2/1 10/2/1 17/2/1
f 18/3/1 15/3/1 14/3/1
f 18/3/1 13/3/1 12/3/1
f 18/3/1 14/3/1 13/3/1
f 18/3/1 11/3/1 10/3/1
f 19/3/1 15/3/1 18/3/1
f 20/1/2 21/1/2 26/1/2
f 26/1/2 21/1/2 27/1/2
f 22/1/2 23/1/2 28/1/2
f 28/1/2 23/1/2 29/1/2
f 24/1/2 25/1/2 30/1/2
f 30/1/2 25/1/2 31/1/2
f 28/3/2 29/3/2 33/3/2
f 31/3/2 32/3/2 33/3/2
f 30/3/2 31/3/2 33/3/2
f 29/3/2 30/3/2 33/3/2
f 26/3/2 27/3/2 33/3/2
f 27/3/2 28/3/2 33/3/2
f 33/3/2 32/3/2 34/3/2
f 38/1/3 36/1/3 35/1/3
f 39/3/3 37/3/3 36/3/3
f 39/1/3 36/1/3 38/1/3
f 40/3/3 37/3/3 39/3/3
f 43/1/3 42/1/3 41/1/3
f 44/1/3 42/1/3 43/1/3
f 47/1/3 46/1/3 45/1/3
f 48/1/3 46/1/3 47/1/3
f 49/1/4 50/1/4 51/1/4
f 51/1/4 50/1/4 52/1/4
f 53/1/4 54/1/4 55/1/4
f 55/1/4 54/1/4 56/1/4
f 57/1/4 58/1/4 59/1/4
f 59/1/4 58/1/4 60/1/4
f 61/3/4 62/3/4 63/3/4
f 63/3/4 62/3/4 64/3/4
f 63/2/4 64/2/4 65/2/4
f 65/2/4 64/2/4 66/2/4
f 65/3/4 66/3/4 67/3/4
f 67/3/4 66/3/4 68/3/4
f 71/1/5 70/1/5 69/1/5
f 72/1/5 70/1/5 71/1/5
f 75/1/5 74/1/5 73/1/5
f 76/1/5 74/1/5 75/1/5
f 79/1/5 78/1/5 77/1/5
f 80/1/5 78/1/5 79/1/5
f 83/3/5 82/3/5 81/3/5
f 84/3/5 82/3/5 83/3/5
f 85/3/5 82/3/5 84/3/5
f 86/3/5 82/3/5 85/3/5
f 87/2/5 84/2/5 83/2/5
f 87/3/5 85/3/5 84/3/5
f 88/2/5 86/2/5 85/2/5
f 88/3/5 85/3/5 87/3/5
f 89/2/5 86/2/5 88/2/5
f 90/3/5 82/3/5 86/3/5
f 90/2/5 86/2/5 89/2/5
f 91/3/5 82/3/5 90/3/5
f 92/3/5 82/3/5 91/3/5
f 93/3/5 82/3/5 92/3/5
f 94/2/5 87/2/5 83/2/5
f 94/2/5 88/2/5 87/2/5
f 95/3/5 89/3/5 88/3/5
f 95/2/5 88/2/5 94/2/5
f 96/2/5 90/2/5 89/2/5
f 96/3/5 89/3/5 95/3/5
f 96/2/5 91/2/5 90/2/5
f 97/2/5 91/2/5 96/2/5
f 98/3/5 92/3/5 91/3/5
f 98/2/5 91/2/5 97/2/5
f 99/3/5 92/3/5 98/3/5
f 100/2/5 93/2/5 92/2/5
f 100/3/5 92/3/5 99/3/5
f 101/2/5 93/2/5 100/2/5
f 102/3/5 82/3/5 93/3/5
f 102/2/5 93/2/5 101/2/5
f 103/3/5 82/3/5 102/3/5
f 104/2/5 99/2/5 98/2/5
f 104/3/5 95/3/5 94/3/5
f 104/3/5 97/3/5 96/3/5
f 104/3/5 96/3/5 95/3/5
f 104/2/5 98/2/5 97/2/5
f 105/2/5 99/2/5 104/2/5
f 106/3/5 101/3/5 100/3/5
f 106/2/5 99/2/5 105/2/5
f 106/3/5 100/3/5 99/3/5
f 107/3/5 101/3/5 106/3/5
f 108/2/5 103/2/5 102/2/5
f 108/3/5 101/3/5 107/3/5
f 108/2/5 102/2/5 101/2/5
f 109/3/5 82/3/5 103/3/5
f 109/2/5 103/2/5 108/2/5
f 110/3/5 105/3/5 104/3/5
f 110/2/5 107/2/5 106/2/5
f 110/2/5 106/2/5 105/2/5
f 111/3/5 108/3/5 107/3/5
f 111/2/5 107/2/5 110/2/5
f 111/3/5 109/3/5 108/3/5
f 112/3/5 110/3/5 104/3/5
f 112/3/5 104/3/5 94/3/5
f 112/3/5 111/3/5 110/3/5
f 113/3/5 82/3/5 109/3/5
f 113/3/5 111/3/5 112/3/5
f 113/3/5 109/3/5 111/3/5
f 116/3/5 115/3/5 114/3/5
f 117/3/5 115/3/5 116/3/5
f 118/3/5 116/3/5 114/3/5
f 119/3/5 116/3/5 118/3/5
f 120/2/5 117/2/5 116/2/5
f 120/3/5 116/3/5 119/3/5
f 121/2/5 117/2/5 120/2/5
f 122/3/5 115/3/5 117/3/5
f 122/2/5 117/2/5 121/2/5
f 123/3/5 115/3/5 122/3/5
f 124/2/5 119/2/5 118/2/5
f 124/3/5 118/3/5 114/3/5
f 125/2/5 119/2/5 124/2/5
f 126/3/5 121/3/5 120/3/5
f 126/2/5 119/2/5 125/2/5
f 126/3/5 120/3/5 119/3/5
f 127/3/5 121/3/5 126/3/5
f 128/3/5 121/3/5 127/3/5
f 129/3/5 121/3/5 128/3/5
f 130/2/5 123/2/5 122/2/5
f 130/3/5 121/3/5 129/3/5
f 130/2/5 122/2/5 121/2/5
f 131/2/5 123/2/5 130/2/5
f 132/3/5 115/3/5 123/3/5
f 132/2/5 123/2/5 131/2/5
f 133/3/5 115/3/5 132/3/5
f 134/3/5 125/3/5 124/3/5
f 134/2/5 126/2/5 125/2/5
f 134/2/5 127/2/5 126/2/5
f 135/2/5 127/2/5 134/2/5
f 136/3/5 128/3/5 127/3/5
f 136/2/5 127/2/5 135/2/5
f 137/3/5 128/3/5 136/3/5
f 138/3/5 128/3/5 137/3/5
f 139/2/5 129/2/5 128/2/5
f 139/3/5 128/3/5 138/3/5
f 140/2/5 129/2/5 139/2/5
f 141/2/5 129/2/5 140/2/5
f 142/3/5 131/3/5 130/3/5
f 142/2/5 129/2/5 141/2/5
f 142/3/5 130/3/5 129/3/5
f 143/3/5 131/3/5 142/3/5
f 144/2/5 133/2/5 132/2/5
f 144/3/5 131/3/5 143/3/5
f 144/2/5 132/2/5 131/2/5
f 145/3/5 115/3/5 133/3/5
f 145/2/5 133/2/5 144/2/5
f 146/3/5 135/3/5 134/3/5
f 146/2/5 136/2/5 135/2/5
f 146/2/5 137/2/5 136/2/5
f 147/2/5 137/2/5 146/2/5
f 148/3/5 138/3/5 137/3/5
f 148/2/5 137/2/5 147/2/5
f 149/2/5 140/2/5 139/2/5
f 149/3/5 138/3/5 148/3/5
f 149/2/5 139/2/5 138/2/5
f 150/2/5 140/2/5 149/2/5
f 151/3/5 141/3/5 140/3/5
f 151/2/5 140/2/5 150/2/5
f 152/2/5 143/2/5 142/2/5
f 152/3/5 141/3/5 151/3/5
f 152/2/5 142/2/5 141/2/5
f 153/3/5 144/3/5 143/3/5
f 153/2/5 143/2/5 152/2/5
f 153/3/5 145/3/5 144/3/5
f 154/2/5 150/2/5 149/2/5
f 154/3/5 147/3/5 146/3/5
f 154/2/5 149/2/5 148/2/5
f 154/2/5 148/2/5 147/2/5
f 155/3/5 152/3/5 151/3/5
f 155/2/5 150/2/5 154/2/5
f 155/3/5 153/3/5 152/3/5
f 155/3/5 151/3/5 150/3/5
f 156/3/5 154/3/5 146/3/5
f 156/3/5 134/3/5 124/3/5
f 156/3/5 155/3/5 154/3/5
f 156/3/5 146/3/5 134/3/5
f 156/3/5 124/3/5 114/3/5
f 157/3/5 153/3/5 155/3/5
f 157/3/5 155/3/5 156/3/5
f 157/3/5 145/3/5 153/3/5
f 157/3/5 115/3/5 145/3/5
f 160/3/5 159/3/5 158/3/5
f 161/3/5 159/3/5 160/3/5
f 162/2/5 161/2/5 160/2/5
f 163/2/5 161/2/5 162/2/5
f 164/3/5 159/3/5 161/3/5
f 164/2/5 161/2/5 163/2/5
f 165/3/5 159/3/5 164/3/5
f 166/3/5 163/3/5 162/3/5
f 166/2/5 164/2/5 163/2/5
f 166/2/5 165/2/5 164/2/5
f 167/3/5 159/3/5 165/3/5
f 167/2/5 165/2/5 166/2/5
f 168/3/5 160/3/5 158/3/5
f 169/2/5 162/2/5 160/2/5
f 169/3/5 160/3/5 168/3/5
f 170/3/5 166/3/5 162/3/5
f 170/2/5 162/2/5 169/2/5
f 170/3/5 167/3/5 166/3/5
f 171/3/5 159/3/5 167/3/5
f 171/3/5 167/3/5 170/3/5
f 172/3/6 173/3/6 174/3/6
f 174/3/6 173/3/6 175/3/6
f 175/3/6 173/3/6 176/3/6
f 176/3/6 173/3/6 177/3/6
f 174/2/6 175/2/6 178/2/6
f 175/3/6 176/3/6 178/3/6
f 176/2/6 177/2/6 179/2/6
f 178/3/6 176/3/6 179/3/6
f 179/2/6 177/2/6 180/2/6
f 177/3/6 173/3/6 181/3/6
f 180/2/6 177/2/6 181/2/6
f 181/3/6 173/3/6 182/3/6
f 182/3/6 173/3/6 183/3/6
f 183/3/6 173/3/6 184/3/6
f 174/2/6 178/2/6 185/2/6
f 178/2/6 179/2/6 185/2/6
f 179/3/6 180/3/6 186/3/6
f 185/2/6 179/2/6 186/2/6
f 180/2/6 181/2/6 187/2/6
f 186/3/6 180/3/6 187/3/6
f 181/2/6 182/2/6 187/2/6
f 187/2/6 182/2/6 188/2/6
f 182/3/6 183/3/6 189/3/6
f 188/2/6 182/2/6 189/2/6
f 189/3/6 183/3/6 190/3/6
f 183/2/6 184/2/6 191/2/6
f 190/3/6 183/3/6 191/3/6
f 191/2/6 184/2/6 192/2/6
f 184/3/6 173/3/6 193/3/6
f 192/2/6 184/2/6 193/2/6
f 193/3/6 173/3/6 194/3/6
f 189/2/6 190/2/6 195/2/6
f 185/3/6 186/3/6 195/3/6
f 187/3/6 188/3/6 195/3/6
f 186/3/6 187/3/6 195/3/6
f 188/2/6 189/2/6 195/2/6
f 195/2/6 190/2/6 196/2/6
f 191/3/6 192/3/6 197/3/6
f 196/2/6 190/2/6 197/2/6
f 190/3/6 191/3/6 197/3/6
f 197/3/6 192/3/6 198/3/6
f 193/2/6 194/2/6 199/2/6
f 198/3/6 192/3/6 199/3/6
f 192/2/6 193/2/6 199/2/6
f 194/3/6 173/3/6 200/3/6
f 199/2/6 194/2/6 200/2/6
f 195/3/6 196/3/6 201/3/6
f 197/2/6 198/2/6 201/2/6
f 196/2/6 197/2/6 201/2/6
f 198/3/6 199/3/6 202/3/6
f 201/2/6 198/2/6 202/2/6
f 199/3/6 200/3/6 202/3/6
f 201/3/6 202/3/6 203/3/6
f 202/3/6 200/3/6 203/3/6
f 203/3/6 200/3/6 204/3/6
f 195/3/6 201/3/6 205/3/6
f 185/3/6 195/3/6 205/3/6
f 201/3/6 203/3/6 205/3/6
f 205/3/6 203/3/6 206/3/6
f 203/2/6 204/2/6 207/2/6
f 206/3/6 203/3/6 207/3/6
f 207/2/6 204/2/6 208/2/6
f 204/3/6 200/3/6 209/3/6
f 208/2/6 204/2/6 209/2/6
f 200/3/6 173/3/6 210/3/6
f 209/3/6 200/3/6 210/3/6
f 205/2/6 206/2/6 211/2/6
f 185/3/6 205/3/6 211/3/6
f 211/2/6 206/2/6 212/2/6
f 207/3/6 208/3/6 213/3/6
f 212/2/6 206/2/6 213/2/6
f 206/3/6 207/3/6 213/3/6
f 213/3/6 208/3/6 214/3/6
f 214/3/6 208/3/6 215/3/6
f 215/3/6 208/3/6 216/3/6
f 208/2/6 209/2/6 217/2/6
f 216/3/6 208/3/6 217/3/6
f 209/2/6 210/2/6 217/2/6
f 217/2/6 210/2/6 218/2/6
f 210/3/6 173/3/6 219/3/6
f 218/2/6 210/2/6 219/2/6
f 219/3/6 173/3/6 220/3/6
f 211/3/6 212/3/6 221/3/6
f 212/2/6 213/2/6 221/2/6
f 213/2/6 214/2/6 221/2/6
f 221/2/6 214/2/6 222/2/6
f 214/3/6 215/3/6 223/3/6
f 222/2/6 214/2/6 223/2/6
f 223/3/6 215/3/6 224/3/6
f 224/3/6 215/3/6 225/3/6
f 215/2/6 216/2/6 226/2/6
f 225/3/6 215/3/6 226/3/6
f 226/2/6 216/2/6 227/2/6
f 227/2/6 216/2/6 228/2/6
f 217/3/6 218/3/6 229/3/6
f 228/2/6 216/2/6 229/2/6
f 216/3/6 217/3/6 229/3/6
f 229/3/6 218/3/6 230/3/6
f 219/2/6 220/2/6 231/2/6
f 230/3/6 218/3/6 231/3/6
f 218/2/6 219/2/6 231/2/6
f 220/3/6 173/3/6 232/3/6
f 231/2/6 220/2/6 232/2/6
f 221/3/6 222/3/6 233/3/6
f 222/2/6 223/2/6 233/2/6
f 223/2/6 224/2/6 233/2/6
f 233/2/6 224/2/6 234/2/6
f 224/3/6 225/3/6 235/3/6
f 234/2/6 224/2/6 235/2/6
f 226/2/6 227/2/6 236/2/6
f 235/3/6 225/3/6 236/3/6
f 225/2/6 226/2/6 236/2/6
f 236/2/6 227/2/6 237/2/6
f 227/3/6 228/3/6 238/3/6
f 237/2/6 227/2/6 238/2/6
f 229/2/6 230/2/6 239/2/6
f 238/3/6 228/3/6 239/3/6
f 228/2/6 229/2/6 239/2/6
f 230/3/6 231/3/6 240/3/6
f 239/2/6 230/2/6 240/2/6
f 231/3/6 232/3/6 240/3/6
f 233/3/6 234/3/6 241/3/6
f 236/2/6 237/2/6 241/2/6
f 235/2/6 236/2/6 241/2/6
f 234/2/6 235/2/6 241/2/6
f 238/3/6 239/3/6 242/3/6
f 241/2/6 237/2/6 242/2/6
f 239/3/6 240/3/6 242/3/6
f 237/3/6 238/3/6 242/3/6
f 240/3/6 232/3/6 243/3/6
f 242/3/6 240/3/6 243/3/6
f 241/3/6 242/3/6 243/3/6
f 243/3/6 232/3/6 244/3/6
f 243/2/6 244/2/6 245/2/6
f 245/2/6 244/2/6 246/2/6
f 244/3/6 232/3/6 247/3/6
f 246/2/6 244/2/6 247/2/6
f 247/3/6 232/3/6 248/3/6
f 245/3/6 246/3/6 249/3/6
f 246/2/6 247/2/6 249/2/6
f 247/2/6 248/2/6 249/2/6
f 248/3/6 232/3/6 250/3/6
f 249/2/6 248/2/6 250/2/6
f 221/3/6 233/3/6 251/3/6
f 233/3/6 241/3/6 251/3/6
f 211/3/6 221/3/6 251/3/6
f 185/3/6 211/3/6 251/3/6
f 241/3/6 243/3/6 251/3/6
f 243/2/6 245/2/6 252/2/6
f 251/3/6 243/3/6 252/3/6
f 249/3/6 250/3/6 253/3/6
f 252/2/6 245/2/6 253/2/6
f 245/3/6 249/3/6 253/3/6
f 250/3/6 232/3/6 254/3/6
f 253/3/6 250/3/6 254/3/6
f 232/3/6 173/3/6 254/3/6
